<?xml version="1.0" encoding="utf-8"?>
<COLLADA xmlns="http://www.collada.org/2005/11/COLLADASchema" version="1.4.1" xmlns:xsi="http://www.w3.org/2001/XMLSchema-instance">
  <asset>
    <contributor>
      <author>Blender User</author>
      <authoring_tool>Blender 4.2.0 commit date:2024-07-16, commit time:06:20, hash:a51f293548ad</authoring_tool>
    </contributor>
    <created>2025-08-14T09:07:41</created>
    <modified>2025-08-14T09:07:41</modified>
    <unit name="meter" meter="1"/>
    <up_axis>Z_UP</up_axis>
  </asset>
  <library_effects>
    <effect id="Surface_1_004-effect">
      <profile_COMMON>
        <technique sid="common">
          <lambert>
            <emission>
              <color sid="emission">0 0 0 1</color>
            </emission>
            <diffuse>
              <color sid="diffuse">0 0.200784 0.4 1</color>
            </diffuse>
            <index_of_refraction>
              <float sid="ior">1</float>
            </index_of_refraction>
          </lambert>
        </technique>
      </profile_COMMON>
    </effect>
  </library_effects>
  <library_images/>
  <library_materials>
    <material id="Surface_1_004-material" name="Surface_1.004">
      <instance_effect url="#Surface_1_004-effect"/>
    </material>
  </library_materials>
  <library_geometries>
    <geometry id="polygons_002-mesh" name="polygons.002">
      <mesh>
        <source id="polygons_002-mesh-positions">
          <float_array id="polygons_002-mesh-positions-array" count="228">0.143305 0.254334 0.922407 0.2074469 0.254334 0.930828 0.115639 0.253997 0.892753 0.234364 0.253997 0.912596 0.252294 0.254175 0.885467 0.174274 0.25405 0.933757 0.253131 0.254192 0.837654 0.127357 0.253997 0.81653 0.146477 0.25421 0.798774 0.225905 0.254104 0.803094 0.1888999 0.25437 0.788193 0.125815 0.21223 0.821362 0.08704799 0.194507 0.82517 0.089603 0.222796 0.813674 0.123833 0.195484 0.83348 0.118326 0.188807 0.848454 0.118811 0.192216 0.861378 0.081321 0.192731 0.859327 0.116212 0.203848 0.875839 0.146609 0.2050729 0.903187 0.145684 0.193122 0.923835 0.135419 0.207364 0.918161 0.11978 0.203599 0.89905 0.115859 0.226028 0.89894 0.145639 0.187386 0.903443 0.1250219 0.236168 0.825646 0.08665198 0.247267 0.829234 0.120925 0.251245 0.846514 0.203967 0.208305 0.933134 0.2288129 0.207506 0.920577 0.201764 0.209726 0.914902 0.127313 0.1823779 0.903736 0.115463 0.227768 0.880122 0.07995498 0.236292 0.869359 0.07880997 0.217202 0.87496 0.117489 0.244603 0.868114 0.08242195 0.248705 0.854678 0.115242 0.182005 0.885174 0.121366 0.182005 0.898427 0.146697 0.240004 0.924714 0.145551 0.246912 0.903443 0.14749 0.230876 0.903223 0.1425999 0.181792 0.922444 0.127357 0.182005 0.81653 0.127577 0.223595 0.810745 0.135771 0.2265959 0.921089 0.161279 0.221517 0.93588 0.1841419 0.18165 0.935441 0.133128 0.248528 0.914463 0.120793 0.245917 0.898867 0.22987 0.2250159 0.92076 0.204539 0.226347 0.915927 0.1848469 0.1819519 0.789328 0.213262 0.181899 0.795662 0.151939 0.181774 0.795698 0.240047 0.181739 0.815505 0.253439 0.182005 0.845306 0.254408 0.18181 0.877962 0.239518 0.181987 0.907617 0.216874 0.1819519 0.926068 0.19846 0.2225649 0.935477 0.212954 0.227963 0.930681 0.251589 0.220203 0.896597 0.25921 0.219884 0.86405 0.25454 0.220008 0.835274 0.154406 0.219741 0.79061 0.187623 0.219848 0.78596 0.2159489 0.219812 0.793026 0.239166 0.219972 0.810526 -0.09949016 0.1957797 0.7925873 -0.09693515 0.2240687 0.7810913 -0.105217 0.1940037 0.8267443 -0.09988617 0.2485396 0.7966513 -0.1065831 0.2375647 0.8367763 -0.1077282 0.2184746 0.8423773 -0.1041162 0.2499777 0.8220953</float_array>
          <technique_common>
            <accessor source="#polygons_002-mesh-positions-array" count="76" stride="3">
              <param name="X" type="float"/>
              <param name="Y" type="float"/>
              <param name="Z" type="float"/>
            </accessor>
          </technique_common>
        </source>
        <source id="polygons_002-mesh-normals">
          <float_array id="polygons_002-mesh-normals-array" count="789">-0.001709818 0.9999138 0.01302468 -3.0913e-4 0.9999931 0.003706037 -2.48886e-4 0.999993 -0.003752708 7.35328e-4 0.9999901 -0.004398167 -0.001177072 0.9999966 0.002353608 -0.005114972 0.9992277 0.03895908 -0.001067638 0.9999986 0.001265406 -0.002260148 0.9999886 0.004211664 -0.002290844 0.9999878 0.004395484 -0.00106889 0.9999986 0.001277625 -4.64412e-4 0.9999731 0.007322072 -3.88697e-4 0.9999734 0.007278263 -0.001064121 0.9999987 0.001264452 9.90577e-4 0.9999784 0.006513297 4.20395e-4 0.9998588 0.01679915 0.1879404 -0.2813655 -0.9410165 0.1396159 -0.4902381 -0.8603338 0.1766588 -0.1064775 -0.9784959 0.1359683 -0.6675739 -0.732023 0.1398189 -0.4906362 -0.8600737 0.1563595 -0.7847004 -0.5998309 0.8642072 -0.4935489 0.09775352 0.06265413 -0.8959366 -0.439741 0.1562694 -0.7850622 -0.5993807 -0.01553148 -0.9977356 -0.06544107 -0.00926733 -0.974082 -0.2260052 -0.01593846 -0.9977451 -0.06519806 -0.069341 -0.9572028 0.2809888 -0.1115011 -0.8913057 0.4394788 -0.01568204 -0.9977689 -0.06489413 -0.03675818 -0.8933641 0.4478272 -0.1115334 -0.8910605 0.4399677 -0.03679627 -0.8930981 0.4483546 -0.1199494 -0.524568 0.8428764 -0.6619715 -0.6354689 -0.3974584 0.02767843 -0.9848188 0.1713647 -0.7094817 -0.02930206 0.7041145 -0.4926539 -0.05926275 0.8682052 -0.6996628 -0.1096678 0.7060064 -0.8834204 0.1069929 0.4562029 -0.9984236 0.0545665 -0.01314526 -0.09727847 0.1128015 0.9888441 -0.1535744 0.02272087 0.9878759 -0.4080523 -0.00520426 0.9129438 -0.9754543 0.01543092 -0.2196606 -0.9497904 0.1248706 -0.2868897 -0.9703965 -0.003616869 -0.2414905 0.06588554 0.8477595 -0.5262729 0.0541768 0.9442445 -0.3247573 0.1814424 0.5394177 -0.8222574 0.06711453 0.9953241 0.06946641 -0.2583515 0.9301094 -0.2610576 -0.2926391 0.9561858 0.008442997 -0.1425688 0.2450555 0.9589692 -0.1602249 0.5628497 0.8108811 -0.1551198 0.05624759 0.9862931 -0.1601361 0.5630684 0.8107468 -0.1609298 0.4431684 0.8818749 -0.08752709 0.7984768 0.595629 0.1038402 0.4623231 0.8806104 -0.08746606 0.7988255 0.5951702 0.02789312 0.9195487 0.3919852 -0.04120302 0.9925811 0.114391 -0.08065325 0.9515776 0.2966399 0.03661954 0.992397 -0.1175049 0.05389761 0.9444211 -0.32429 -0.8477116 -0.036273 0.529216 -0.9988277 -0.04045635 -0.02658039 -0.7988039 -0.09594422 0.5938915 -0.9926419 -0.1202242 0.01443582 -0.09698522 0.1132538 0.9888213 -0.3041569 0.02725154 0.9522321 -0.3754781 0.07079607 0.9241235 -0.2926769 0.956169 0.009009242 -0.3052369 0.910813 0.2779392 -0.6625043 -0.08398461 0.7443351 -0.5266206 0.09420686 0.8448644 -0.4085728 -0.005300641 0.9127103 -0.543106 -0.01424789 0.8395434 -0.4984662 -0.06151747 0.8647237 -0.4081149 -0.005328059 0.9129151 -0.9588031 0.2372403 -0.1562491 -0.9841801 -0.01476621 -0.1765546 -0.975114 0.1190978 -0.1869986 -0.9992777 0 -0.03800207 -0.9988203 -0.04045653 -0.02685964 -0.9817671 -0.05108314 -0.1830953 -0.9518055 -0.03356164 -0.3048605 -0.9817657 -0.05110406 -0.1830968 -0.9988228 -0.04040628 -0.02684193 -0.9831855 -0.05909126 -0.1727848 -0.9756036 0.1602991 0.150006 -0.9988289 -0.04044109 -0.0265581 -0.8836399 -0.08673065 0.4600635 -0.990478 0.08628153 -0.107279 -0.9869247 0.1491597 -0.06108331 -0.9906497 0.1237339 0.05747401 -0.9904825 0.08624529 -0.1072676 -0.997285 0.01619267 -0.0718376 -0.989867 -0.01636683 -0.1410515 -0.6244428 0.02394562 0.7807035 -0.7742727 0.0239005 0.6324006 -0.719707 0.03090727 0.6935898 -0.5881924 -0.03282183 0.8080549 -0.6609208 0.01393449 0.7503263 -0.5878162 -0.03259068 0.8083378 -0.6608558 0.01400041 0.7503824 -0.3365944 0.04071992 0.9407689 -0.5083751 0.03066146 0.8605898 -0.3363137 0.04038578 0.9408838 -0.6240557 0.02371001 0.7810201 0.05292677 -0.0982151 0.9937568 -0.3567801 -0.893984 -0.2711099 -0.1805914 -0.9817495 -0.05962169 -0.1805951 -0.9817485 -0.05962538 0.01069462 -0.9875605 0.1568752 0.1762812 0.0558421 0.9827547 -0.1973447 -0.01233947 0.9802566 0.01929491 -0.01514321 0.9996992 0.01930922 -0.01519322 0.9996981 -0.1973382 -0.01233243 0.980258 -0.2072886 -0.02570205 0.9779422 -0.5432999 -0.01419508 0.8394188 -0.1602155 0.001538932 0.9870809 -0.4609046 0.03628623 0.8867076 -0.1802641 -0.03528261 0.9829853 0.1338272 0.6919575 -0.7094259 0.1811525 0.5392089 -0.8224582 0.1697869 0.3684871 -0.9139966 0.1510549 0.1227288 -0.9808773 0.1815057 0.538964 -0.8225409 0.1768295 -0.1059672 -0.9785205 0.3784899 0.8233104 -0.422972 -0.1329237 0.08470088 -0.9875004 -0.2023779 0.8295276 -0.5205067 -0.4505604 0.5273634 0.7203356 0.3464875 -0.8119825 0.4697137 -0.4272529 -0.1323872 0.8943874 -0.4987581 -0.7976081 0.3392074 0.1854431 -0.9826182 0.008509457 0.06182867 -0.9703972 -0.2334667 -0.077735 0.9508945 0.2995948 0.3655325 0.929845 0.04212379 0.00202763 -0.9998458 -0.01744985 0.002019107 -0.9999017 -0.01388263 5.82579e-4 -0.999978 -0.006614625 -8.46245e-4 -0.9999966 0.002515316 -0.00137794 -0.9999937 0.003296554 -8.52814e-4 -0.9999964 0.002554178 -4.56575e-4 -0.999998 0.002000629 -0.001377224 -0.9999937 0.00329411 -0.001384675 -0.9999936 0.003320872 -4.48851e-4 -0.999998 0.001980721 -0.001071333 -0.999999 -9.6336e-4 -0.001380562 -0.9999936 0.003299593 -0.001096904 -0.999999 -9.11132e-4 -9.80876e-4 -0.9999994 6.02992e-4 0.003181397 -0.9997725 -0.02109301 0.00293821 -0.9998661 -0.01609569 0.001948714 -0.9999335 -0.01136851 8.59966e-4 -0.99999 -0.00441581 -9.53851e-4 -0.9999995 5.51781e-4 -4.41959e-4 -0.9999999 2.50581e-4 8.49285e-4 -0.9999901 -0.004369556 -1.58032e-4 -1 7.17188e-5 -6.81585e-4 -0.9999997 3.72225e-4 -1.4037e-4 -1 -2.46513e-5 -0.001327991 -0.9999941 0.003165006 -0.0995258 -0.8003845 0.5911678 -0.1202557 -0.5243884 0.8429445 -0.153029 -0.3682444 0.9170487 -0.1825593 -0.1541589 0.9710341 -0.119992 -0.5241146 0.8431524 -0.1549772 0.05566596 0.9863486 0.924994 0.3708364 -0.08286482 0.9901167 0.1039139 0.0941857 0.9901199 0.1039012 0.09416538 0.9901395 0.1034264 0.09448266 0.9901426 0.1034142 0.09446305 0.9493047 -0.1746134 0.2614015 -0.6974822 0.649953 -0.3017944 -0.4669445 0.8790937 -0.09569334 -0.4669259 0.8791007 -0.09571981 -0.4665736 0.8793219 -0.09540504 -0.4665715 0.8793227 -0.0954076 -0.1668146 0.978047 0.1248882 0.1336212 0.02984929 0.990583 0.4088242 0.08032274 0.9090715 0.3008815 0.09810924 0.9486016 0.5511531 0.04061949 0.833415 0.3011607 0.09816825 0.9485068 0.6632832 0.04587244 0.7469613 0.7189471 0.1268315 0.6833952 0.9526712 0.138241 0.2707527 0.8798002 0.009507894 0.4752486 0.7515446 -0.09336161 0.6530424 0.6052948 -0.06639432 0.7932276 0.4574426 -0.09059828 0.884612 0.4571856 -0.09051048 0.8847538 0.3087372 -0.04868543 0.9499006 0.3159246 -0.07255613 0.946006 0.4569503 -0.09060597 0.8848655 0.3155884 -0.07268041 0.9461086 0.05348205 -0.09805685 0.9937427 -0.278718 0.03010743 0.959901 -0.1272902 0.1151497 0.9851588 0.9997506 0.008048534 0.02083379 0.969438 -0.1110795 0.2187498 0.972788 -0.1148474 -0.20123 -0.5731013 0.03745049 0.8186284 -0.5805081 0.1255592 0.8045156 -0.7079611 0.09897357 0.6992821 -0.8275313 0.1251001 0.5473041 -0.7081434 0.0984745 0.6991679 -0.9288445 0.09575879 0.3578802 -0.461387 0.03625297 0.886458 -0.461363 0.03641033 0.8864641 -0.7140585 0.1583417 0.6819446 -0.6197926 -0.03261256 0.7840878 -0.1278208 0.1153838 0.9850627 0.934625 0.1246121 -0.3330886 0.9316061 -0.02641743 -0.3625085 -0.9277017 -0.04193294 -0.3709598 -0.633041 0.004330873 -0.7741063 -0.4918769 -0.09845203 -0.8650807 -0.326945 0.005251646 -0.9450287 -0.03720092 -0.1010842 -0.9941822 0.08619815 -0.02883058 -0.9958608 0.3562505 -0.09641975 -0.9294025 0.4504067 5.45419e-4 -0.8928233 0.06056845 0.1179624 -0.9911693 -0.5150559 0.1222191 -0.8483986 -0.5155427 0.1222081 -0.8481044 -0.6331457 0.004571676 -0.7740193 -0.9295694 0.1501597 -0.3366789 0.595205 0.1327334 -0.7925357 0.7476506 0.03266197 -0.6632885 0.7552601 -0.09476137 -0.6485387 0.7556201 -0.09483891 -0.6481081 0.3240352 -0.942521 -0.08157986 0.1247913 -0.991477 0.03742581 0.1249498 -0.9914605 0.03733438 -0.08115237 -0.9847105 0.1541421 -0.9850909 0.008678734 -0.1718162 -0.9860408 0.007393181 -0.1663401 -0.9861183 0.00682789 -0.1659038 -0.9861321 0.006809353 -0.1658227 -0.9860567 0.007369816 -0.1662465 -0.9865686 0.005681872 -0.1632481 -0.9861485 0.006618797 -0.1657327 -0.986534 0.00566858 -0.1634587 -0.9843855 0.006283819 -0.1759142 -0.9843875 0.006282806 -0.175903 -0.9864702 0.005442738 -0.1638509 -0.9833958 0.006578266 -0.1813549 -0.9801018 0.007920682 -0.1983373 0.09707659 -0.1398639 0.9854006 0.2885398 -0.3630106 -0.8859843 0.4608242 0.08705484 -0.8832115 0.02787339 0.9195471 0.3919901 -0.02400457 0.8980202 0.439299 -0.4506045 0.5273891 0.7202892 0.1653036 -0.5043716 -0.8475165</float_array>
          <technique_common>
            <accessor source="#polygons_002-mesh-normals-array" count="263" stride="3">
              <param name="X" type="float"/>
              <param name="Y" type="float"/>
              <param name="Z" type="float"/>
            </accessor>
          </technique_common>
        </source>
        <vertices id="polygons_002-mesh-vertices">
          <input semantic="POSITION" source="#polygons_002-mesh-positions"/>
        </vertices>
        <triangles material="Surface_1_004-material" count="148">
          <input semantic="VERTEX" source="#polygons_002-mesh-vertices" offset="0"/>
          <input semantic="NORMAL" source="#polygons_002-mesh-normals" offset="1"/>
          <p>0 0 1 1 2 2 2 2 1 1 3 3 2 2 3 3 4 4 0 0 5 5 1 1 4 4 6 6 2 2 2 2 6 6 7 7 7 8 6 9 8 10 8 11 6 12 9 13 8 11 9 13 10 14 11 15 12 16 13 17 12 18 11 19 14 20 15 21 14 21 16 21 12 22 14 23 15 24 12 25 15 26 17 27 17 28 15 29 16 30 17 31 16 32 18 33 19 34 20 34 21 34 21 35 22 35 19 35 23 36 22 37 21 38 20 39 19 40 24 40 24 41 19 42 22 43 25 44 7 45 11 46 26 47 27 48 25 49 28 50 29 50 30 50 24 51 31 52 20 51 32 53 33 54 34 55 33 56 32 57 35 58 33 59 35 60 36 61 36 61 35 60 27 62 36 63 27 64 26 65 23 66 37 67 38 68 39 69 40 69 41 69 24 70 22 71 31 72 31 73 38 74 42 74 38 75 31 76 22 77 23 78 38 79 22 80 27 81 7 45 25 44 43 82 7 83 44 84 37 85 14 86 43 87 43 87 14 86 11 46 43 87 11 46 7 45 14 88 37 89 16 90 2 91 37 92 23 93 27 81 35 94 2 95 2 96 35 97 32 98 2 96 32 98 37 89 37 89 32 98 18 99 37 89 18 99 16 90 27 81 2 95 7 45 42 100 20 101 31 102 23 36 21 38 45 103 45 103 21 38 20 104 45 105 20 106 46 107 46 108 20 101 42 100 46 109 42 110 47 111 39 112 48 113 40 114 40 114 48 113 49 115 50 116 51 117 29 118 29 119 51 120 30 121 23 122 41 123 49 124 49 124 41 123 40 125 26 126 25 127 13 128 13 129 25 130 11 131 26 132 70 133 72 134 36 61 73 135 33 59 17 136 74 137 71 138 12 139 71 138 69 140 26 132 75 141 36 142 52 143 53 144 54 145 54 145 53 144 55 146 54 145 55 146 43 147 55 148 56 149 43 150 43 151 56 152 57 153 43 154 57 155 58 156 47 157 42 158 59 159 59 159 42 158 38 160 59 159 38 160 58 161 58 162 38 163 37 164 58 165 37 166 43 167 17 168 18 169 34 170 34 171 18 172 32 173 28 174 30 175 60 176 60 177 30 178 51 179 39 180 41 181 45 182 45 183 41 184 23 185 60 186 61 187 1 188 1 188 61 187 50 189 1 190 50 191 3 192 4 193 3 192 62 194 62 194 3 192 50 191 62 194 50 191 58 195 58 195 50 191 29 196 58 195 29 196 59 197 59 198 29 199 28 200 59 201 28 202 47 203 47 203 28 202 60 186 47 203 60 186 46 204 46 204 60 186 1 188 46 204 1 188 5 205 4 193 62 194 63 206 63 206 62 194 57 207 63 206 57 207 56 208 62 194 58 195 57 207 45 105 46 107 39 209 39 209 46 107 0 210 39 209 0 210 48 211 48 211 0 210 2 212 48 213 2 214 49 215 49 216 2 217 23 218 46 107 5 219 0 210 4 193 63 206 6 220 6 220 63 206 64 221 56 208 64 221 63 206 43 222 44 223 54 224 54 224 44 223 65 225 54 224 65 225 52 226 52 226 65 225 66 227 52 226 66 227 53 228 53 228 66 227 67 229 67 229 66 227 10 230 10 230 66 227 65 225 10 230 65 225 8 231 8 231 65 225 44 223 8 232 44 233 7 234 67 229 10 230 9 235 9 235 68 236 67 229 67 229 68 236 55 237 67 229 55 237 53 228 9 235 6 220 68 236 68 236 6 220 64 221 68 236 64 221 55 237 55 238 64 221 56 208 60 239 51 240 61 241 61 241 51 240 50 242 74 243 73 244 71 245 71 246 73 247 75 248 71 249 75 250 69 251 69 252 75 253 72 254 69 252 72 254 70 255 34 256 73 135 74 137 12 257 70 133 13 258 26 132 13 258 70 133 36 259 75 260 73 261 17 136 34 256 74 137 12 139 17 136 71 138 26 132 72 134 75 141 34 256 33 59 73 135 12 257 69 262 70 133</p>
        </triangles>
      </mesh>
    </geometry>
  </library_geometries>
  <library_visual_scenes>
    <visual_scene id="Scene" name="Scene">
      <node id="mh00400-j00_lk1_3" name="mh00400-j00_lk1_3" type="NODE">
        <matrix sid="transform">1 0 0 -0.182 0 1 0 0 0 0 1 -0.8610001 0 0 0 1</matrix>
        <instance_geometry url="#polygons_002-mesh" name="mh00400-j00_lk1_3">
          <bind_material>
            <technique_common>
              <instance_material symbol="Surface_1_004-material" target="#Surface_1_004-material"/>
            </technique_common>
          </bind_material>
        </instance_geometry>
      </node>
    </visual_scene>
  </library_visual_scenes>
  <scene>
    <instance_visual_scene url="#Scene"/>
  </scene>
</COLLADA>