<?xml version="1.0" encoding="utf-8"?>
<COLLADA xmlns="http://www.collada.org/2005/11/COLLADASchema" version="1.4.1" xmlns:xsi="http://www.w3.org/2001/XMLSchema-instance">
  <asset>
    <contributor>
      <author>Blender User</author>
      <authoring_tool>Blender 4.2.0 commit date:2024-07-16, commit time:06:20, hash:a51f293548ad</authoring_tool>
    </contributor>
    <created>2025-08-14T08:57:46</created>
    <modified>2025-08-14T08:57:46</modified>
    <unit name="meter" meter="1"/>
    <up_axis>Z_UP</up_axis>
  </asset>
  <library_effects>
    <effect id="Surface_1_001-effect">
      <profile_COMMON>
        <technique sid="common">
          <lambert>
            <emission>
              <color sid="emission">0 0 0 1</color>
            </emission>
            <diffuse>
              <color sid="diffuse">0 0.200784 0.4 1</color>
            </diffuse>
            <index_of_refraction>
              <float sid="ior">1</float>
            </index_of_refraction>
          </lambert>
        </technique>
      </profile_COMMON>
    </effect>
  </library_effects>
  <library_images/>
  <library_materials>
    <material id="Surface_1_001-material" name="Surface_1.001">
      <instance_effect url="#Surface_1_001-effect"/>
    </material>
  </library_materials>
  <library_geometries>
    <geometry id="polygons-mesh" name="polygons">
      <mesh>
        <source id="polygons-mesh-positions">
          <float_array id="polygons-mesh-positions-array" count="1254">-0.400812 0.196685 0.69436 -0.406877 0.1860679 0.694551 -0.410403 0.224685 0.707113 -0.40194 0.179147 0.700641 -0.412378 0.175843 0.723291 -0.413506 0.232864 0.721578 -0.416609 0.210528 0.719865 -0.417596 0.243246 0.727573 -0.413224 0.199753 0.723671 0.09523499 0.267155 0.964248 0.102993 0.296413 0.948831 0.09861999 0.236246 0.973479 0.093261 0.212337 0.968816 0.09579896 0.272661 0.954541 0.100313 0.307739 0.93646 0.109198 0.328502 0.912383 -0.420417 0.184731 0.745274 -0.419994 0.182686 0.757835 -0.425495 0.188585 0.772776 -0.417878 0.212022 0.730428 -0.42888 0.211 0.790287 -0.424225 0.196292 0.782864 -0.426059 0.22382 0.792095 -0.417737 0.255987 0.745559 -0.422815 0.256774 0.75774 -0.422674 0.251504 0.773918 -0.427187 0.243246 0.782388 -0.423097 0.1910229 0.819883 -0.427469 0.2133589 0.809795 -0.428174 0.183158 0.81541 -0.42084 0.176708 0.807987 -0.422674 0.174978 0.776583 -0.18276 0.06368899 0.752316 -0.160475 0.05904895 0.763736 -0.1907989 0.05896997 0.751554 0.08804196 0.176944 0.837013 0.08973497 0.185596 0.820359 0.083952 0.179383 0.85595 0.08550298 0.180405 0.837774 -0.414634 0.284616 0.771349 -0.41816 0.289728 0.759834 -0.421263 0.269594 0.776297 0.14051 0.267785 0.735852 0.132471 0.296649 0.752411 0.136984 0.252212 0.731665 -0.215059 0.05912697 0.759548 0.105531 0.108598 0.904199 0.1069419 0.120317 0.926277 0.114558 0.09900295 0.882596 0.09819698 0.143361 0.947404 0.133599 0.320008 0.774775 -0.202506 0.06541895 0.751269 -0.415481 0.286739 0.744132 -0.411249 0.290042 0.753838 -0.408287 0.263223 0.729571 -0.238049 0.06455397 0.787527 -0.232266 0.05991399 0.778486 -0.233112 0.05928498 0.804752 0.100031 0.172147 0.965485 0.09523499 0.187798 0.96815 -0.1656939 0.07375597 0.856141 -0.204481 0.07312697 0.851287 -0.187555 0.073363 0.853857 -0.1459479 0.05896997 0.801897 -0.143691 0.06455397 0.804181 -0.149051 0.06455397 0.816933 0.12288 0.333142 0.803514 0.125841 0.341086 0.818741 0.115968 0.344311 0.85005 -0.19898 0.06290197 0.839296 -0.219995 0.05896997 0.829875 -0.19094 0.05896997 0.840058 -0.16654 0.05912697 0.831969 -0.224086 0.06117188 0.824356 -0.22465 0.06518298 0.827686 -0.233817 0.064947 0.814744 -0.18544 0.376321 0.751935 -0.1757079 0.380961 0.754219 -0.155539 0.380883 0.770112 -0.164566 0.374591 0.757931 -0.151872 0.374984 0.770016 -0.146371 0.38104 0.805323 -0.144396 0.375377 0.790287 -0.167245 0.08044099 0.86718 -0.17063 0.09499198 0.888877 -0.2111099 0.1429679 0.928847 -0.205891 0.105295 0.899536 -0.203775 0.09876698 0.902391 -0.210263 0.08146399 0.939505 -0.198275 0.075015 0.872509 -0.199826 0.07509297 0.857187 -0.208853 0.075015 0.931892 -0.210686 0.164439 0.940076 -0.2098399 0.1429679 0.937507 -0.189248 0.075015 0.936745 -0.190376 0.082879 0.942931 -0.190376 0.358468 0.943026 -0.2091349 0.364995 0.933319 -0.210263 0.357131 0.939505 -0.185581 0.298301 0.932558 -0.180221 0.336524 0.902486 -0.187979 0.315053 0.929037 0.135291 0.2276729 0.730428 0.132894 0.167349 0.744703 0.135573 0.172855 0.735376 0.137548 0.143597 0.752506 0.14192 0.203764 0.727858 -0.17331 0.380961 0.836346 -0.1700659 0.374827 0.837393 -0.156949 0.375141 0.828353 -0.147781 0.375377 0.81541 -0.143691 0.375456 0.804181 0.130919 0.132271 0.76326 0.131201 0.111429 0.788859 -0.189953 0.267234 0.943692 -0.18953 0.27565 0.943121 -0.197993 0.376478 0.839582 -0.206032 0.380961 0.837393 -0.225919 0.380883 0.821691 0.139382 0.2199659 0.727287 0.07887399 0.192438 0.875364 0.079297 0.249145 0.873461 0.077605 0.2201229 0.883263 0.08296495 0.260156 0.852429 0.08663195 0.25929 0.830922 0.08987599 0.196214 0.811413 0.09072196 0.239392 0.80694 -0.177682 0.364917 0.871938 -0.189107 0.364995 0.935318 -0.180785 0.356344 0.888402 -0.170207 0.364995 0.859376 -0.190517 0.294447 0.943121 -0.224791 0.375063 0.763355 -0.2274709 0.380725 0.772967 -0.208853 0.380961 0.755837 -0.211674 0.374827 0.754314 -0.233959 0.375377 0.776297 -0.238049 0.375377 0.787527 -0.235651 0.380096 0.7979 -0.237344 0.375377 0.801326 -0.2298679 0.374905 0.821596 -0.217033 0.374591 0.833682 -0.179798 0.103486 0.90201 -0.177682 0.07509297 0.871843 -0.170207 0.075015 0.859376 -0.181914 0.089643 0.894682 -0.18812 0.125665 0.929893 -0.189671 0.151776 0.942931 -0.185299 0.142181 0.932844 -0.188261 0.171911 0.943692 0.09608095 0.220044 0.973289 -0.404479 0.2189429 0.708445 -0.41816 0.215876 0.750508 -0.414634 0.264875 0.733854 -0.238049 0.06463295 0.799422 -0.210122 0.293739 0.939695 -0.205045 0.331569 0.91048 -0.197852 0.364838 0.868131 -0.213789 0.27565 0.938934 -0.211533 0.296334 0.928561 -0.205609 0.334637 0.898775 -0.200955 0.365074 0.855855 0.100172 0.323154 0.965009 0.110045 0.363265 0.909528 0.102569 0.341165 0.945691 0.143895 0.29484 0.717105 0.137125 0.341086 0.755647 0.130637 0.363029 0.79219 0.120341 0.374827 0.850811 0.11752 0.344468 0.866799 0.123021 0.09554195 0.834443 0.121892 0.06534099 0.842247 0.1320469 0.08051997 0.784482 0.14051 0.116856 0.736423 0.145164 0.160428 0.709872 0.14728 0.228696 0.698357 0.145587 0.254493 0.701688 0.09551697 0.279582 0.991465 0.09678697 0.145327 0.984233 0.104685 0.09373295 0.939029 0.114417 0.06903696 0.8845 0.145587 0.185517 0.701688 0.136138 0.098845 0.755361 0.098338 0.1233839 0.969863 0.09382498 0.198022 1.00298 0.09311997 0.254493 0.999364 -0.413788 0.176472 0.758597 0.110045 0.340064 0.881454 0.103839 0.325356 0.909528 -0.419712 0.266526 0.764402 -0.425636 0.250954 0.790762 -0.425636 0.198258 0.797138 -0.232689 0.06463295 0.77468 -0.218726 0.06510496 0.758311 0.101582 0.190787 0.898965 0.106378 0.170023 0.894492 0.103134 0.170102 0.87622 0.114276 0.151776 0.849669 0.108775 0.163338 0.848527 0.113994 0.166956 0.825402 0.106519 0.114103 0.892779 0.119918 0.157046 0.818075 0.102146 0.208955 0.918474 0.104121 0.263773 0.88783 0.103416 0.252212 0.911622 0.101018 0.229561 0.908957 0.09142696 0.264403 0.862802 0.08507996 0.23774 0.888592 0.08592599 0.214618 0.89354 0.1176609 0.18536 0.804181 0.103416 0.211786 0.799898 0.1176609 0.240179 0.795616 0.113853 0.264324 0.814363 0.122174 0.270065 0.804752 0.110186 0.276593 0.839772 0.114417 0.288233 0.849574 0.108775 0.278088 0.867846 0.108775 0.282964 0.881169 0.115968 0.09569895 0.84986 0.121187 0.09994596 0.818265 0.124995 0.114654 0.789716 0.125277 0.187798 0.787622 0.122174 0.21037 0.789049 0.12161 0.325985 0.806465 0.126406 0.2309769 0.78077 -0.417032 0.261493 0.779628 -0.421545 0.22382 0.804561 -0.179234 0.06526196 0.840343 -0.1630139 0.06502598 0.833396 -0.144396 0.06526196 0.784196 -0.135793 0.07454299 0.859567 -0.236779 0.07879 0.851953 -0.1744379 0.113789 0.910099 0.08507996 0.09876698 0.94255 0.08070796 0.123305 0.966722 -0.126061 0.08901399 0.888116 -0.07993996 0.080756 0.881169 -0.04947495 0.07375597 0.868893 0.102993 0.08028399 0.915999 0.09579896 0.06887996 0.881359 0.101864 0.06502598 0.847385 0.120623 0.06872296 0.815791 0.11343 0.08036297 0.781151 0.118648 0.098845 0.752221 -0.154128 0.09593498 0.711585 -0.365269 0.101755 0.669332 -0.208007 0.094913 0.704067 -0.269924 0.08862096 0.704448 -0.192351 0.07918298 0.72881 -0.259628 0.07375597 0.735662 -0.278669 0.07344198 0.82702 -0.309698 0.08618295 0.847385 -0.342138 0.07776695 0.822738 -0.206878 0.08240801 0.864134 -0.210404 0.09664297 0.883738 -0.258923 0.09357595 0.869844 -0.397991 0.101755 0.854999 -0.392914 0.083745 0.82683 -0.408569 0.089643 0.82702 -0.393478 0.07304799 0.795425 -0.403774 0.07682299 0.775536 -0.390657 0.07053101 0.7605 -0.394465 0.080756 0.725003 -0.381489 0.073206 0.726621 -0.385015 0.08980095 0.691791 -0.370206 0.083745 0.697596 -0.05553895 0.06659895 0.840058 -0.333958 0.06864398 0.78924 -0.176695 0.129204 0.923327 0.077605 0.15272 0.984899 -0.1786699 0.146586 0.933985 -0.04608988 0.065813 0.82131 -0.04693591 0.06651997 0.804657 -0.02944689 0.07186895 0.780199 -0.05582195 0.08028399 0.754885 -0.08529895 0.08696895 0.736994 -0.122958 0.09286797 0.721102 -0.13142 0.07721698 0.745274 -0.09672397 0.07053101 0.771158 -0.15709 0.06518298 0.763926 -0.319148 0.06832897 0.754409 -0.337202 0.075015 0.72567 -0.339741 0.06714999 0.769541 -0.408852 0.108362 0.857854 -0.420135 0.115519 0.849384 -0.415339 0.09396898 0.804942 -0.422251 0.1217319 0.831588 -0.411954 0.09719395 0.773252 -0.400107 0.110171 0.704067 -0.390093 0.157675 0.65106 -0.388259 0.228067 0.637262 -0.21393 0.115362 0.904294 -0.216328 0.130777 0.917141 -0.402081 0.125743 0.8786 -0.218021 0.1479229 0.927324 -0.405184 0.154372 0.8963 -0.218585 0.17254 0.938268 -0.417878 0.136361 0.87879 -0.42084 0.167664 0.895253 -0.425777 0.143361 0.867085 -0.429867 0.1878769 0.886593 -0.429021 0.172619 0.870035 0.077605 0.287211 0.984994 0.07548898 0.254414 0.996223 0.074925 0.2199659 1.00003 0.07563 0.185517 0.996223 0.08070796 0.316626 0.966817 0.08507996 0.341165 0.942645 -0.1744379 0.326221 0.910099 -0.17063 0.345019 0.888877 0.09015798 0.359647 0.913715 -0.126061 0.351153 0.888306 -0.167245 0.359569 0.86718 0.120623 0.371209 0.815696 0.101723 0.374984 0.847481 0.108634 0.371209 0.883643 -0.05511593 0.372939 0.839772 -0.04947495 0.366568 0.868893 -0.132549 0.36531 0.859757 -0.07993996 0.359254 0.881169 0.128803 0.2199659 0.694836 -0.141293 0.258268 0.653344 0.1259829 0.28729 0.709967 0.135715 0.316705 0.730238 0.118507 0.341165 0.752316 0.11343 0.359647 0.781246 -0.07627296 0.354692 0.741182 -0.05582195 0.359726 0.754885 -0.114918 0.364995 0.75498 -0.09009498 0.370894 0.779438 -0.303775 0.08248597 0.711205 -0.404479 0.08673298 0.741848 -0.421968 0.2023479 0.903533 -0.407159 0.1863819 0.907339 -0.407864 0.2199659 0.911051 -0.04608988 0.374197 0.821405 -0.03043395 0.37349 0.807607 -0.357935 0.285638 0.628031 -0.361038 0.314267 0.645731 -0.365269 0.338255 0.669332 -0.372604 0.27211 0.623938 -0.375848 0.303649 0.640021 -0.374578 0.331648 0.662956 -0.384733 0.350367 0.691981 -0.370206 0.356265 0.697596 -0.381348 0.366962 0.727097 -0.303775 0.357524 0.711205 -0.337202 0.365546 0.725765 -0.270912 0.36822 0.74042 -0.340305 0.370265 0.74613 -0.33565 0.372389 0.770302 -0.335932 0.371995 0.78334 -0.308288 0.368928 0.809795 -0.250743 0.362872 0.844911 -0.361038 0.125743 0.645731 -0.379656 0.109778 0.663337 -0.37613 0.136361 0.639831 -0.389529 0.130462 0.658483 -0.395593 0.100576 0.696073 -0.43029 0.243875 0.875459 -0.428315 0.236797 0.894682 -0.417455 0.237976 0.906197 -0.407159 0.253628 0.907339 -0.1786699 0.293424 0.933985 -0.176695 0.310806 0.923327 -0.420699 0.27211 0.895063 -0.218726 0.266841 0.938458 -0.405184 0.285638 0.8963 -0.418019 0.303649 0.879075 -0.428315 0.267863 0.882025 -0.218021 0.292087 0.927419 -0.216328 0.309233 0.917141 -0.21393 0.32457 0.904294 -0.402081 0.314267 0.8786 -0.02944689 0.367748 0.780104 -0.103494 0.349816 0.728525 -0.16513 0.344468 0.710253 -0.170348 0.360827 0.732236 -0.229586 0.34612 0.702449 -0.380079 0.236797 0.621655 -0.365975 0.237976 0.614612 -0.355396 0.2199659 0.61328 0.127957 0.185517 0.698643 -0.371475 0.2021909 0.615469 -0.35596 0.1863819 0.616991 0.1259829 0.152799 0.709872 -0.372604 0.167742 0.623938 -0.357935 0.154372 0.628031 0.12288 0.1233839 0.728049 -0.384592 0.187562 0.628887 -0.1656939 0.366254 0.856141 -0.1876969 0.366647 0.853857 -0.229445 0.362085 0.727954 -0.269924 0.351389 0.704448 -0.388118 0.32457 0.666953 -0.386285 0.282492 0.640116 -0.418866 0.329446 0.810462 -0.424507 0.309469 0.856902 -0.415481 0.343681 0.822167 -0.413506 0.330232 0.85576 -0.399261 0.354928 0.828067 -0.402928 0.362793 0.794379 -0.387413 0.367434 0.79533 -0.386849 0.370973 0.761356 -0.206596 0.35076 0.874793 -0.220277 0.34376 0.881264 -0.397991 0.338255 0.854999 -0.204481 0.366883 0.851287 -0.273027 0.348007 0.865181 -0.309698 0.353906 0.847481 -0.342138 0.361928 0.822833 -0.186991 0.364995 0.859757 -0.395452 0.311907 0.677992 -0.406313 0.342816 0.741372 -0.398696 0.346041 0.710443 -0.410262 0.353277 0.773442 -0.39785 0.363187 0.741943 -0.186991 0.075015 0.859757</float_array>
          <technique_common>
            <accessor source="#polygons-mesh-positions-array" count="418" stride="3">
              <param name="X" type="float"/>
              <param name="Y" type="float"/>
              <param name="Z" type="float"/>
            </accessor>
          </technique_common>
        </source>
        <source id="polygons-mesh-normals">
          <float_array id="polygons-mesh-normals-array" count="2985">-0.4466393 0.2396333 -0.8620263 -0.4282047 0.3612396 -0.8283398 -0.5709499 -0.732871 -0.3700221 -0.8335104 -0.4624462 -0.3023309 0.528608 -0.3161424 -0.7877994 -0.9320058 0.06127679 -0.3572262 -0.8596692 -0.09521657 -0.5018991 -0.9197412 0.1508127 -0.3623971 0.6877945 -0.03996074 -0.7248047 0.778802 0.2513355 -0.5747155 -0.4966905 -0.2978599 -0.8152167 -0.2975998 -0.5489104 -0.7811093 -0.5245875 -0.1045402 -0.8449138 0.9910898 0.01520496 -0.1323254 0.9928146 -0.03843891 0.1133213 0.9551432 -0.09196352 -0.2815037 -0.2974101 -0.5491562 -0.7810087 0.2917044 -0.7749637 -0.5606601 0.1447605 -0.8527943 -0.501783 -0.9624792 -0.1748758 -0.2074908 -0.9671799 -0.1975374 -0.1598191 -0.9686974 -0.2476438 -0.01726496 0.955035 -0.2945979 0.03347223 0.8178055 -0.5630141 -0.1192029 0.714639 -0.6738408 0.1876959 0.9831755 0.00780934 0.1824972 0.9551334 -0.2942591 0.03364467 0.5455477 -0.2335553 0.8048788 0.5604432 -0.4904054 0.6673874 0.6066341 0.07875788 0.7910703 0.7797127 0.5137939 -0.3578602 0.7577445 0.648932 -0.06863313 0.7788737 0.2516222 -0.5744928 -0.9528378 0.1957336 -0.2319235 -0.9483019 0.1222791 -0.2928674 -0.9552524 0.2632159 -0.1349462 0.5604093 -0.4906988 0.6672002 0.5273918 -0.7058697 0.4728698 0.7145039 -0.673896 0.188012 -0.9761655 -0.1950111 0.09524565 -0.8780595 -0.1713172 0.4468355 -0.8134513 -0.5460073 0.2004322 -0.9738283 0.2142297 -0.07592219 -0.8042921 0.5890617 -0.07823479 -0.8610505 0.4001374 0.3138188 0.6581308 0.7175509 0.2280014 0.6603116 0.575172 0.4828724 0.7576691 0.6490544 -0.0683071 -0.9954849 0.03654795 0.08760243 -0.9817982 0.186564 0.0355823 -0.9926621 -0.07872819 0.09178227 -0.7645025 0.1350324 0.6303191 -0.611994 -0.7868979 0.07908934 0.2494138 -0.5953745 0.7637552 0.1792156 -0.7113626 -0.6795918 0.5699313 -0.4939132 -0.6566796 0.3361094 -0.437928 -0.8338162 0.96744 0.1705909 0.1869727 0.9486468 0.2040694 0.2417128 0.9689695 0.2026044 0.1415968 -0.8369917 0.5456972 -0.0407381 -0.756128 0.4801363 0.4446796 -0.9354947 0.3172883 0.1554925 0.6602917 0.5749191 0.4832007 0.6062006 0.3833886 0.6968027 0.6066973 0.07910144 0.7909877 0.4882463 -0.3279787 0.808731 0.7410205 -0.3219324 0.5892778 0.674601 -0.1719499 0.7178766 -0.2555143 0.5622746 -0.7864859 -0.1576129 0.8763764 -0.4551072 -0.3304368 0.7127727 -0.6186813 -0.1882424 0.9395304 -0.28609 0.7079288 0.6041124 -0.3659033 0.8429042 0.530128 -0.0920701 0.864726 0.3587689 -0.3514742 -0.6574192 -0.5043007 0.5598937 -0.6312845 -0.2616371 0.7300863 -0.1055285 -0.8068299 -0.5812825 0.1221844 -0.786172 -0.605809 -0.2170063 -0.891843 -0.3968935 0.7069811 0.5158612 -0.4838026 0.6369525 0.4626448 -0.6166453 -0.4359874 -0.8950822 -0.09350425 -0.6356494 -0.6917509 -0.3426815 -0.5842029 -0.7983008 0.1463664 0.7350469 0.3264318 -0.5942628 0.8647413 0.3585924 -0.3516165 0.8814247 0.1712874 -0.440172 -0.02676081 0.9960383 0.08480352 0.7456045 -0.6347042 0.203038 0.8932664 -0.4231054 0.151845 0.6457827 -0.662607 0.3793637 -0.475995 0.4893218 -0.7307482 -0.3637853 0.2591204 -0.8947162 -0.3306685 0.7125014 -0.61887 0.7656902 -0.5280527 0.3672589 0.371234 -0.8508979 0.3716962 0.8432852 -0.512906 0.1606166 -0.1466703 -0.7546191 0.6395606 -0.5777778 -0.4728624 0.6652625 -0.2966064 -0.4424846 0.8463049 -0.08065873 0.7143725 0.6951014 0.2398931 0.6331447 0.7359206 0.4991326 -0.7546541 0.4258684 0.4316118 -0.7487236 0.5031145 0.1773851 -0.9463729 0.2700238 -0.6355815 -0.5872274 0.5011989 -0.3799766 -0.7637874 0.5217726 -0.7213322 -0.5860788 0.3690415 -0.3926191 0.7163202 0.5768324 -0.08104115 0.7144238 0.6950044 0.4570381 -0.6714779 -0.5832955 0.2894312 0.8074201 -0.5141037 0.04799956 0.7310203 -0.6806653 0.3888542 0.8564751 -0.3394745 0.3137278 0.750513 -0.5816402 0.6001043 0.6064578 -0.5216165 0.7035517 0.5957274 -0.3874585 0.8073796 0.5869956 0.05978721 0.4362288 0.8433929 -0.3136766 0.6282447 0.7749256 0.0692743 0.3526718 0.9289677 -0.1124358 -0.9727454 -0.2318469 0.003674387 -0.8640966 -0.3204135 0.3881654 -0.8405978 -0.4461042 0.307224 -0.9871808 -0.1595984 -0.001636803 -0.9847121 -0.004680752 -0.1741271 -0.9858962 -0.1590426 -0.05209857 -0.9425066 -0.3207608 0.09377527 -0.9844691 -0.008221447 -0.1753653 -0.9878498 -0.05626082 0.1448702 -0.9724989 -0.1826656 0.1444965 -0.9941184 -0.1011239 0.0387637 -0.9941198 -0.1011825 0.03857493 -0.1867254 -0.3693276 0.9103465 -0.1223756 -0.6999008 0.7036783 -0.1374354 -0.3298036 0.933992 -0.1589893 0.3778279 0.9121231 -0.1210509 0.6994657 0.7043398 -0.1860541 0.332057 0.9247282 0.8449721 0.1503375 0.5132456 0.7621281 0.4107662 0.5004318 0.8998314 0.1599879 0.4058417 0.8858348 -0.01507449 0.4637562 0.9724078 0.03746408 0.2302599 0.8065617 0.08870315 0.584457 -0.7464132 0.297998 0.5950333 -0.5434955 0.5491005 0.6349027 -0.7704077 0.1027494 0.6292174 0.2979745 0.5006351 0.8127582 0.3115953 0.3176034 0.8955649 0.5506452 0.6223539 0.5562964 0.1965242 0.8971498 0.3956015 0.3157805 0.8623743 0.3957187 0.6407542 0.7484979 0.1708363 0.7646201 0.6321445 0.1254962 0.370052 0.8059954 0.4619881 0.7635112 0.5116821 0.393995 0.7886531 0.5824376 0.1969593 0.7637379 0.5114387 0.3938718 0.9035504 0.405041 0.1397805 0.7647982 0.6319815 0.1252324 0.9035746 0.4051116 0.1394187 0.7571344 0.6379005 -0.1408206 0.4277743 0.4780209 0.767141 0.6704796 0.2072934 0.712381 0.6461648 0.4692738 0.6018747 -0.5432609 0.5493865 0.6348561 0.08457642 0.7731648 0.6285403 0.1016248 0.8498563 0.5171236 0.9544136 -0.02780836 0.2971894 0.8450042 0.1501462 0.5132487 0.8855818 0.09393125 0.4548868 -0.5004832 -0.5865264 0.6367916 0.8858221 -0.01520401 0.4637758 0.6747588 -0.1718126 0.7177611 0.8646813 -0.2171803 0.4529449 0.6745873 -0.171734 0.7179411 0.8065099 -0.01602864 0.5910033 0.5688173 0.0329926 0.821802 0.569002 0.03319561 0.8216658 0.8856889 -0.01506352 0.4640349 0.7480198 0.1745772 0.640304 0.4952688 0.1079642 0.8620051 0.9959458 0.08923286 0.01137799 0.9956946 -0.07644265 -0.05242961 0.9496976 -0.007334947 -0.3130828 0.9956921 -0.0764932 -0.05240297 0.9866497 0.0577985 0.1522554 0.9853088 -5.26554e-4 0.1707811 0.9789159 0.0947842 0.180941 0.9858351 -9.23381e-5 0.1677181 0.9228271 0.08071178 0.3766643 0.8525995 0.03727024 0.5212342 0.8502274 0.5264134 -0.001571953 0.9788942 0.09509432 0.1808958 0.9780384 0.2036742 -0.04424589 0.7605354 0.4753916 0.442254 0.8611834 0.1963083 0.4688563 0.9788541 0.095115 0.1811019 0.9846194 -0.001876652 0.1747034 0.9429401 0.1703845 0.2860649 0.9839802 0.01813417 0.1773536 0.9379575 0.1606334 0.307299 0.8370542 0.3264761 0.4390371 0.9428346 0.1707336 0.2862045 0.6224126 0.491868 0.6088255 0.496386 0.6837123 0.5349192 0.9769786 0.02448624 0.2119274 0.8855147 0.09402859 0.4549971 0.8999091 0.1598604 0.4057195 0.6174077 0.3042845 0.7254093 0.6223767 0.491855 0.6088726 -0.4145893 0.7931465 -0.4461328 -0.5535041 0.7707109 -0.315655 -0.3039408 0.495981 -0.813402 -0.0419206 0.5106486 -0.858767 0.04769539 0.7308509 -0.6808687 -0.303622 0.4959353 -0.8135489 -0.3037018 0.4958066 -0.8135976 0.03811931 0.6247568 -0.7798885 -0.3150146 0.362558 -0.8771076 -0.304016 0.4958673 -0.8134433 -0.2558021 0.5930739 -0.7634322 -0.576343 0.5482677 -0.6059961 -0.5765209 0.5483782 -0.6057269 -0.6966682 0.6083555 -0.3802068 -0.6418349 0.6677026 -0.3771225 -0.553702 0.7706719 -0.3154029 -0.3261614 0.9120017 -0.2487402 -0.7758767 0.6161038 -0.135763 -0.4745883 0.8380241 -0.2692244 -0.4405002 0.8950181 -0.07001709 -0.714585 0.6918157 0.1037274 -0.8218191 0.5563787 0.122704 -0.7760887 0.6158869 -0.1355342 -0.8770993 0.4452892 0.18004 -0.6547913 0.6309681 0.4160861 -0.5887646 0.5909111 0.5515255 -0.5886521 0.5908141 0.5517495 -0.7553293 0.4872877 0.4382105 -0.3801898 0.7297581 0.5682507 -0.3384734 0.8921281 0.299238 -0.346992 0.7942739 0.498724 -0.06844866 0.7681325 0.6366218 0.7413042 -0.4310045 0.5144932 0.9012064 -0.2592714 0.3472832 0.5037459 -0.6697909 0.5455458 0.9846449 0.007790923 0.1743953 0.9438768 -0.1470004 0.2957831 0.9868684 -0.001501083 0.1615197 0.9055971 -0.180145 0.3839817 0.910724 -0.1112647 0.3977463 0.8520161 -0.1817182 0.4909656 0.7324833 -0.2793743 0.6208208 0.9106922 -0.111256 0.3978214 0.8520705 -0.1815372 0.4909381 0.8848981 -0.07931208 0.4589827 -0.3999359 -0.1524446 0.9037765 -0.5963305 -0.1278712 0.7924891 -0.6311522 -0.2613404 0.730307 -0.7694127 0.1024611 0.6304807 -0.5246188 -0.1041555 -0.844942 -0.3635993 0.2588784 -0.8948618 -0.2925372 0.1302275 -0.9473452 -0.03232097 0.1581289 -0.9868894 0.7543712 -0.1106306 -0.6470587 0.8155431 -0.03384572 -0.5777059 0.9181696 -0.1777479 -0.3540769 0.99104 0.01519578 -0.1326983 0.6150408 0.4914992 -0.6165658 0.5847014 0.4460265 -0.6776317 0.5847182 0.4460585 -0.6775962 0.6368095 0.4625046 -0.6168981 -0.9970103 0.06430077 -0.04284757 -0.9874013 0.00928992 -0.1579636 -0.9715977 -0.1508345 -0.1823379 -0.9625161 -0.1746928 -0.2074736 -0.9619612 0.1179791 -0.2463971 -0.9993906 0.02013343 -0.02851635 -0.9483754 0.1219922 -0.292749 -0.9794383 0.1098564 -0.1692106 -0.9988623 0.04223638 -0.02213966 -0.4537758 0.3646408 -0.8130957 -0.4291282 0.4218243 -0.7986947 -0.429126 0.4218276 -0.7986942 -0.4281315 0.3615794 -0.8282293 -0.7758793 -0.6161388 -0.1355895 -0.6620668 -0.7305245 0.1673365 -0.4580799 -0.8831452 0.1010812 -0.7870614 -0.6046324 0.122287 -0.7462697 -0.6354828 0.1980993 -0.7214705 -0.5861025 0.3687334 0.2447341 0.9117662 0.3298296 0.005537748 0.998256 0.05877345 0.005780637 0.9982393 0.05903184 -0.2340727 0.9469556 -0.2201932 0.9577173 0.2391011 -0.160026 0.9910804 0.01534986 -0.1323787 0.8815206 0.171162 -0.4400285 0.8814285 0.1711299 -0.4402256 0.9603132 0.01539003 -0.2784994 0.8154109 -0.03364825 -0.5779041 -0.9862058 0.1545326 0.05931162 -0.9842862 -4.30567e-4 -0.1765804 -0.9885975 0.149802 -0.01531159 -0.9846083 -0.001057267 -0.1747725 -0.9556216 0.2863845 0.06907439 -0.8489052 0.2696148 0.4546073 -0.9611219 0.2302836 0.1523618 -0.9200726 0.3573929 0.1604269 -0.8331563 0.4626787 0.3029506 -0.9555204 0.2866508 0.06936955 -0.6118882 0.6780959 0.4071596 0.9852142 -2.46375e-4 0.1713271 0.9856937 -0.004425406 0.1684886 0.9749597 0.0584107 0.214574 0.9779838 0.0427733 0.2042501 0.9133781 0.2350047 0.3324356 0.9841833 4.87533e-4 0.1771529 0.9921601 0.01493269 0.1240784 0.984256 -0.001008689 0.1767459 0.984206 -0.002949535 0.1770026 0.9540777 -0.1349229 0.2674543 0.9844094 -0.003411412 0.1758595 0.9848643 -0.003187 0.1732982 0.9848498 -0.003407955 0.1733763 0.9845243 -0.004066467 0.1752014 0.9850079 -0.00247246 0.1724919 0.9848887 -0.003110527 0.173161 0.9850503 -0.002280831 0.1722519 0.9848745 -0.00391221 0.1732252 0.9848854 -0.003989696 0.1731617 0.9850209 -0.002303004 0.1724195 0.985859 -0.01026368 0.1672621 0.9843158 0.008752763 0.1761986 0.9845486 0.006581485 0.1749879 0.9843979 0.004814922 0.1758913 0.9844084 0.004743397 0.175834 0.9845544 0.006531 0.1749573 0.990121 -0.06630545 0.1235482 0.984309 0.002341866 0.1764379 0.9899172 -0.06679576 0.1249095 0.9937127 -0.01139831 0.1113787 0.9999455 0.01040452 -8.94025e-4 0.9927293 0.07702338 -0.092498 0.9746026 0.009364068 0.223746 0.9786916 -0.03170776 0.2028729 0.9852091 3.8505e-4 0.1713569 0.9752504 -0.03998154 0.2174587 0.984943 0.001969814 0.1728685 0.9850391 0.004251539 0.1722788 0.985121 0.006764173 0.1717295 0.9851251 0.006754398 0.1717062 0.984969 0.004380702 0.1726756 0.9845519 0.006568074 0.1749699 0.9851053 0.006894826 0.1718142 0.9845665 0.006608545 0.1748859 0.9843155 0.008752584 0.1762002 0.9949485 -0.04589807 -0.0892803 0.9621632 -0.2702328 -0.0348742 0.9899197 -0.06698131 0.1247899 0.9670014 -0.2427112 0.07745695 0.9250321 -0.1601938 0.3444612 0.9608735 0.01907497 0.2763301 0.9178156 0.03677034 0.3953006 0.2424141 -0.9693788 0.03924506 0.2296855 -0.972717 0.03265511 0.2744534 -0.9610612 0.03219926 0.2744729 -0.9610558 0.03219562 0.2296674 -0.9727215 0.0326451 0.2904141 -0.9564722 0.02865034 0.3622744 -0.9315537 0.03106451 0.6558404 -0.48064 -0.5821157 0.8692361 -0.2108823 -0.4471657 0.80868 -0.4718622 -0.3512587 0.8888322 -0.3849694 -0.2485479 0.9182835 -0.1778255 -0.3537421 0.9928246 -0.03855913 0.113192 0.3229764 -0.9174306 -0.2323952 0.3794356 -0.8539134 -0.3561748 0.6010431 -0.7309861 -0.3231201 0.6011449 -0.7309073 -0.3231091 0.4043719 -0.7859315 -0.4677554 0.6388093 -0.6012286 -0.4800489 -0.9483886 0.1220257 -0.2926923 -0.8598413 -0.09532219 -0.5015843 -0.9624785 -0.1748662 -0.2075016 -0.9549829 -0.1082292 -0.2762139 0.1374894 -0.8758102 -0.4626589 0.3226605 -0.9175403 -0.2324009 0.03320306 -0.9914889 -0.1258859 0.3069023 -0.9468648 0.09621888 0.03285658 -0.9915071 -0.1258335 0.1242055 -0.9922539 -0.002280414 -0.06344443 -0.9671977 0.2459743 -0.9738629 0.2140413 -0.07600945 -0.9840743 0.07419896 -0.1615316 -0.952942 0.1954066 -0.2317715 -0.9776822 0.06683456 -0.1991751 -0.9320686 0.06125879 -0.3570653 -0.9768221 0.004572391 -0.2140041 -0.9550344 -0.1080925 -0.2760894 -0.9792975 -0.02742242 -0.2005605 -0.9778987 -0.06230771 -0.1995793 -0.9955733 0.04298835 -0.08358204 -0.9954987 0.03649854 0.08746588 -0.9978889 -0.01264911 -0.06370234 -0.9878808 -0.1522011 0.03044009 -0.9883526 -0.04979991 -0.1438022 -0.9883508 -0.0497983 -0.1438156 -0.992985 -0.03575295 -0.1127057 -0.9672092 -0.197349 -0.1598743 -0.9344314 -0.2452328 -0.2582613 -0.9672023 -0.1973721 -0.1598873 -0.990175 -0.002747714 -0.1398069 -0.9911056 -0.009059548 -0.1327699 -0.9911041 -0.009046316 -0.1327819 -0.9862632 0.0739541 -0.1477016 -0.9870408 0.03517699 -0.1565667 -0.9848738 0.03623366 -0.1694428 -0.9731391 0.2239913 0.05318182 -0.4446682 -0.8513559 0.2783225 -0.5841276 -0.7982864 0.1467448 -0.6355273 -0.5873895 0.5010775 -0.6356834 -0.5871809 0.501124 -0.7462423 -0.635487 0.1981886 -0.5780381 -0.4728764 0.6650262 -0.7760141 -0.6159074 -0.1358689 -0.7618622 -0.4466977 -0.4690706 -0.7298615 -0.5562584 -0.3973396 -0.561092 -0.4836011 -0.671793 -0.3653988 -0.590171 -0.7198485 -0.10965 -0.7441747 -0.6589241 0.8465694 0.3025587 -0.4379253 0.9680042 0.246383 -0.04757332 0.7638474 0.6134876 -0.2004252 0.9350459 0.3274424 0.135907 0.6860793 0.7204227 0.101422 0.7036026 0.5957012 0.3874062 0.9855856 0.03724533 0.1650264 0.951777 0.1545027 0.2650464 0.9991906 0.03840613 -0.01196044 0.9375231 -0.332676 -0.1018682 0.996896 -0.07535272 0.02281069 0.9647313 -0.06583726 -0.2548705 0.8933492 -0.09148979 -0.439951 0.9968978 -0.07527852 0.02297842 0.9647321 -0.0657292 -0.2548956 0.9991868 0.03844177 -0.01217591 0.9270891 0.2254527 -0.299461 0.5822532 -0.8107736 -0.06022876 0.6148961 -0.7668222 -0.1840836 0.7150134 -0.548673 -0.4332596 0.7897809 -0.5041485 -0.3494004 0.7150039 -0.5484595 -0.4335454 0.7213132 -0.5464611 -0.4255437 0.7314026 -0.2810516 -0.6213375 0.7743746 -0.1140877 -0.622357 0.7315479 -0.2807083 -0.6213216 0.893182 -0.09151017 -0.440286 0.7352367 0.1000556 -0.6703849 0.7351154 0.100381 -0.6704692 0.7744242 -0.1137737 -0.6223527 0.7884469 0.3508239 -0.5052467 0.7352011 0.1004138 -0.6703705 0.8463825 0.3025698 -0.4382789 0.7106686 0.470692 -0.522876 0.7105726 0.4709625 -0.5227628 0.7884368 0.3510502 -0.5051052 0.7637814 0.6135135 -0.2005975 0.7969628 0.4408293 -0.4129406 0.7637461 0.6135777 -0.2005354 0.7134536 0.6962931 -0.07848554 0.5788865 0.8047092 -0.1316569 0.71336 0.6964211 -0.07820081 0.6858262 0.7206661 0.1014041 0.4992109 0.8347102 0.2324807 0.6499978 0.6566444 0.3825195 0.4992611 0.8345842 0.2328252 0.7033514 0.595907 0.3875457 0.5843635 0.5949306 0.5518851 0.4294701 0.6745264 0.6004745 0.7033699 0.5958412 0.3876134 0.5946959 0.4422227 0.6713985 0.5842989 0.5947544 0.5521432 0.6515849 0.39738 0.6461628 0.6153206 0.3294771 0.7161183 0.4692013 0.3400648 0.8149884 0.6515929 0.3972002 0.6462652 0.4757391 0.1274358 0.8703059 0.7960874 0.2286052 0.5603433 0.4758803 0.1273365 0.8702433 0.6281226 -0.2606096 0.7331744 0.4805409 -0.3075075 0.8212915 0.6367246 -0.2241395 0.7377962 0.4804886 -0.3078466 0.821195 0.5748556 -0.2709646 0.7720877 0.5886473 -0.5780044 0.5651595 0.6369596 -0.224286 0.7375488 0.876807 -0.2897238 0.3837572 0.6733165 -0.710048 0.2060989 0.9477181 -0.2604665 0.1843576 0.8623918 -0.5062366 -0.002246856 0.9859268 -0.1313255 0.103451 0.9329765 0.3456665 0.1003469 0.9801771 0.09198224 0.1754767 0.97998 0.03653186 0.1957162 0.9384381 0.07752484 0.336636 0.6518678 0.3971524 0.6460174 0.6903546 0.3434501 0.6367516 0.7423087 0.09692239 0.6630113 0.9996584 0.00149542 -0.02609664 0.9928115 -0.0384317 0.1133511 0.9877627 -0.0369215 0.1515316 0.9829632 -0.03368151 0.1806902 0.498278 -0.7679468 0.4024636 0.7316319 -0.2807772 -0.6211916 0.9103072 -0.03641217 -0.4123289 0.8836883 -0.3958603 -0.2497793 0.8153631 -0.0452795 -0.5771768 0.9103087 -0.03607356 -0.4123556 0.7353104 0.1003058 -0.6702667 0.8668784 0.3782877 -0.3246847 0.7446416 0.5254776 0.411561 0.674678 0.736721 -0.04529672 0.8481912 0.5132817 0.1308199 0.9070619 0.4192703 -0.03809529 0.9072158 0.4189434 -0.03802752 0.9387649 0.335156 0.07994359 0.9955738 0.05817663 0.07381308 0.9930534 -0.1150425 0.0247004 0.8379101 -0.4522302 -0.3056053 0.8928509 -0.4235824 -0.1529552 0.837705 -0.4525231 -0.3057342 0.9805985 -0.0981819 0.1696673 0.9230332 -0.1788451 0.3406231 0.8703238 -0.3811711 0.3118416 0.9153897 -0.3388271 0.217389 0.9306184 -0.001541614 0.3659879 0.9235842 -0.03334307 0.3819431 0.9724166 0.03745675 0.2302237 0.7420793 0.09698939 0.6632582 0.6838904 -0.1522762 0.7135166 0.9443278 0.1107373 0.3098104 0.9723771 0.03756964 0.2303724 0.8306003 0.2507901 0.4971997 0.7482523 0.1746273 0.6400186 0.8792527 -0.3294597 0.344051 0.7657117 -0.5278648 0.3674842 0.8645377 -0.217517 0.4530574 -0.07945054 0.3433101 0.9358556 0.1515703 0.4425643 0.8838344 0.2519718 0.4530825 0.8551178 0.2729563 0.4851497 0.8307375 0.1653228 0.4536092 0.8757323 0.02391743 0.4364827 0.8993948 0.05786067 0.4203045 0.9055365 0.08503049 -0.7756471 0.6254132 0.3913745 -0.6040449 0.6942303 0.5174871 -0.6134479 0.5965643 0.4469522 -0.7361453 0.5082558 0.3915063 -0.6041761 0.6940419 0.7455586 -0.6347563 0.2030441 0.3796588 -0.8007971 0.4632311 0.5609596 -0.7981102 0.2198738 0.3051714 -0.9185217 0.2513734 0.8933812 -0.4229851 0.151505 0.8083811 -0.5700078 0.1470071 0.7998173 -0.5397674 -0.2625715 0.4039908 -0.897539 -0.1766785 0.6482759 -0.7406275 0.1766614 0.3291788 -0.8960185 -0.2979805 -0.1384667 -0.8325922 0.5362995 -0.1465079 -0.7548281 0.6393513 -0.01649254 -0.8299341 0.5576177 0.08766841 -0.8179804 0.5685266 0.00168085 -0.8890204 0.4578647 -0.007564306 -0.9304271 0.3663992 -0.06400614 -0.8588861 0.5081515 -0.1438544 -0.8562398 0.4961444 0.57114 -0.5566517 0.6032729 0.03237956 -0.8034591 0.5944788 -0.04091119 -0.6909621 0.7217324 -0.1094864 -0.7790494 0.6173289 -0.1443045 -0.616943 0.7736651 -0.1100999 -0.6646203 0.7390249 -0.1402114 -0.4758754 0.8682646 -0.08822888 -0.8602487 0.5021831 -0.07422947 -0.9037205 0.421639 -0.05420196 -0.9473452 0.3155936 -0.01030272 -0.905081 0.4251143 -0.0320602 -0.9804134 0.1943237 0.1026824 -0.9632604 0.2481647 0.005666017 -0.9997453 -0.02184474 0.1028279 -0.9632891 0.2479935 0.1848748 -0.9811035 -0.05707323 0.1180612 -0.9633827 -0.2407394 0.3931093 -0.8506583 -0.349064 0.1993396 -0.8994392 -0.3889381 0.08533447 -0.8728035 -0.4805542 0.1054827 -0.7842558 -0.6114053 0.1007941 -0.8007174 -0.5905016 0.008690774 -0.793583 -0.6084 0.08930361 -0.8148667 -0.5727278 0.06890642 -0.8664225 -0.4945341 0.0643168 -0.8390206 -0.540285 -0.003710508 -0.9429736 -0.3328471 -0.03617465 -0.8729492 -0.4864681 -0.1051682 -0.9773932 -0.1834185 0.2549257 -0.8543107 0.4529529 -0.6354115 -0.5873267 0.5012981 -0.339627 -0.8263346 0.449249 -0.1154956 -0.9411915 0.3175207 -0.100319 -0.8840364 0.4565257 -0.07562017 -0.9403904 0.3315837 -0.1991597 -0.8143696 0.5451035 -0.252034 -0.7846393 0.5664099 -0.1106927 -0.8339639 0.540603 -0.199676 -0.7857972 0.5853651 -0.1688933 -0.8876077 0.4285179 -0.5710472 -0.7627089 0.3036121 -0.2323318 -0.9558855 0.1797358 -0.6734891 -0.7385315 -0.03136271 -0.326239 -0.9423978 -0.07385456 -0.6388712 -0.7211896 -0.2678231 -0.1662245 -0.9525693 -0.2549142 -0.4745879 -0.7333357 -0.4868113 -0.01553755 -0.898437 -0.4388278 -0.318106 -0.6638714 0.6768187 -0.129788 -0.948872 0.2877451 0.07744938 -0.8225385 0.5634111 0.3682622 -0.8645299 0.3420104 0.1511548 -0.9661568 0.2090291 -0.01670873 -0.9900063 0.1400298 -0.007450103 -0.9304769 0.3662748 0.03076159 -0.8696516 0.4927067 0.2371805 -0.9310963 0.2771374 -0.06581491 -0.9840072 0.1655241 -0.2406234 -0.9486634 0.2052764 -0.2353195 -0.8769837 0.4189563 -0.08873802 -0.5817297 0.8085273 -0.1489 -0.4308141 0.8900719 -0.01892369 -0.4497191 0.8929696 0.02121114 -0.5387842 0.8421767 0.1236138 -0.7227893 0.6799231 0.01471215 -0.9998764 0.005555629 0.004565834 -0.9999133 0.01235198 0.1602621 -0.9803431 -0.1150814 0.03318762 -0.9908841 -0.1305657 0.04696398 -0.9672087 -0.2496033 0.06218332 -0.9181095 -0.3914182 0.08309477 -0.8826444 -0.4626383 0.1021658 -0.8225023 -0.5595107 0.1304254 -0.8786574 -0.4592934 0.1790442 -0.7116018 -0.6793866 0.08098328 -0.9523088 -0.2941936 0.1429108 -0.9536608 -0.2647789 0.1224149 -0.7862242 -0.6056948 -0.05163288 -0.9897083 -0.1334608 -0.001844763 -0.9874051 -0.1582019 0.03425389 -0.9492705 -0.3125897 -0.1925358 -0.9805567 -0.0379287 -0.0438072 -0.9990228 -0.00587368 -0.0410735 -0.9982131 0.04339951 -0.2279582 -0.9730174 0.03567063 0.001630365 -0.8891028 0.4577047 0.03724318 -0.9544137 0.2961547 0.1743428 -0.9216248 0.3467167 0.001811265 -0.8889774 0.4579476 0.03270149 -0.8034921 0.5944166 0.03737902 -0.9543206 0.2964375 0.03252708 -0.8034898 0.5944295 0.1236768 -0.7229995 0.679688 -0.4925879 -0.6811814 0.5416172 -0.8634662 -0.4440465 0.2392672 -0.9204605 -0.3906124 -0.01321375 -0.9898892 -0.1207849 -0.07436686 -0.979305 -0.1304385 -0.1547507 -0.9846762 -0.044523 -0.1686136 -0.9669566 -0.10979 -0.2300896 -0.9762146 -0.02999502 -0.2147219 -0.961819 -0.05378115 -0.2683503 -0.9741915 -0.01792985 -0.2250102 -0.9743192 -0.01856017 -0.2244052 -0.9559037 0.01214128 -0.2934297 -0.2659807 -0.6909661 0.6721757 -0.1080213 -0.5844285 0.8042231 -0.230107 -0.6135743 0.7553658 -0.2091881 -0.4960671 0.8427087 -0.2707764 -0.4319614 0.8602845 -0.1364592 -0.4728001 0.8705396 -0.1078205 -0.5844178 0.8042579 -0.1510793 -0.6720056 0.7249714 -0.3181361 -0.6637127 0.6769601 -0.7495667 -0.3900941 0.5347676 -0.2811143 -0.1237 0.9516687 -0.2735189 -0.287975 0.9177461 -0.1876288 -0.2073718 0.9601003 -0.1374907 -0.3294786 0.9340987 -0.2006008 -0.02915602 0.9792392 -0.1472905 -0.1825143 0.9721081 -0.629065 -0.4970781 0.5976544 -0.6759776 -0.2980055 0.6739785 -0.9511724 -0.2344092 0.2008073 -0.7339878 -0.2859374 0.6160371 -0.96292 -0.09591847 0.2521606 -0.9960631 -0.04759061 -0.07478988 -0.1234607 0.600571 0.7899823 -0.1449249 0.4442939 0.8840813 -0.1493417 0.3902921 0.9084984 -0.17809 0.2244784 0.9580676 -0.1427665 0.162541 0.9763187 -0.1805451 -0.008391678 0.983531 -0.183722 -0.2370986 0.9539552 -0.1316407 -0.2238411 0.9656945 0.02135896 -0.5384991 0.8423553 0.1893529 -0.5094137 0.8394303 -0.1407628 0.6317495 0.7622849 -0.1318827 0.770132 0.6241023 -0.1006823 0.7910503 0.6034092 0.01464873 0.6994444 0.7145369 9.45772e-4 0.8053615 0.5927833 0.4886952 0.5828097 0.6492379 0.04604911 0.9114854 0.4087466 -0.08434617 0.8852625 0.4573798 -0.0866034 0.8610464 0.5010978 -0.001385331 0.8529914 0.5219233 0.2303879 0.9223381 -0.3101834 0.09673601 0.9802523 -0.1724752 0.2440141 0.9688264 0.04280835 -7.97791e-4 0.9999231 0.01237732 0.01520115 0.968994 0.2466164 -0.01596385 0.9890297 0.146852 -0.05272287 0.9493256 0.3098407 -0.01331233 0.9229992 0.3845718 -0.07157498 0.9118098 0.4043266 0.18623 -0.1691246 -0.9678406 0.1776526 -0.02959787 -0.9836481 0.184432 0.03772503 -0.982121 0.1547993 0.2012099 -0.9672393 0.1808639 0.2763333 -0.94389 0.1527225 0.4458769 -0.8819692 0.3133502 0.5065107 -0.8032799 0.2032701 0.6423825 -0.7389358 0.2465941 0.7699855 -0.5884843 0.1013441 0.8015643 -0.5892574 0.07570481 0.9009432 -0.4272823 0.07765406 0.8740251 -0.4796354 0.06777328 0.9224913 -0.380022 0.1107065 0.9128772 -0.392937 0.07047361 0.9678862 -0.2413085 0.2381358 0.9478113 -0.2120026 0.181376 0.9761481 -0.1193222 0.05915582 -0.9102193 -0.4098801 -0.902276 -0.3820847 -0.1997731 -0.6505873 -0.086281 0.7545143 -0.2691066 -0.2132101 0.9392141 -0.2756519 0.01755315 0.9610974 -0.2407672 -0.04573971 0.9695045 0.00858736 0.9999516 -0.004814982 0.02936565 0.9934644 -0.1103001 0.04616957 0.4099673 -0.9109309 0.03067147 0.6103981 -0.7915008 0.02421683 0.7834028 -0.6210424 -0.08697193 0.2666093 -0.9598726 -0.294187 0.2723351 -0.9161264 -0.382641 0.4904723 -0.7829577 -0.2740406 0.6832286 -0.6768312 -0.4299566 0.7648922 -0.4796637 -0.008529722 0.8804656 -0.4740332 -0.1651371 0.9367731 -0.3085221 0.05338126 0.9115175 -0.4077822 0.008324265 0.9580832 -0.2863693 -0.002189278 0.9553584 -0.2954415 -0.01548022 0.9858 -0.1672087 -0.1742035 0.9753164 -0.1356878 -0.03821533 0.9992651 -0.003003656 -0.03540986 0.994441 -0.09916263 -0.1932461 0.9801377 -0.04456657 -0.05377966 0.9951838 0.08195745 -0.06212407 0.9948443 0.08015924 -0.08084696 0.9695312 0.2312424 -0.1492413 0.9609948 0.2328433 -0.1416921 0.8826708 0.4481246 0.01524931 -0.6410728 -0.7673286 -0.3876847 -0.641645 -0.6618099 -0.4326279 -0.4556037 -0.7779835 -0.8311212 -0.3051747 -0.4648721 -0.8430332 -0.4050998 -0.3538209 -0.9900321 -0.03716927 -0.1358493 -0.9992265 0.03120797 -0.02393108 -0.9920014 0.01179623 -0.1256745 -0.9915217 -0.02714008 -0.1270757 -0.9003143 0.06742966 0.4299853 -0.5437422 0.1090015 0.8321437 -0.2582489 0.2388864 0.9360773 -0.1391414 0.2831231 0.9489368 -0.1260983 0.4942501 0.8601256 -0.1824793 0.5956625 0.7822324 0.2782346 0.644737 0.711969 -0.6483614 0.2813657 0.7074326 -0.2587754 0.248997 0.9332931 -0.2563772 0.4422513 0.8594676 -0.6628524 0.4625809 0.5887663 -0.9461492 0.1813268 0.2681836 -0.1729449 0.0254485 0.9846027 -0.3694452 0.209368 0.9053592 -0.535293 0.2225579 0.8148187 -0.3771911 0.4446455 0.8124145 -0.3696353 0.2096601 0.905214 -0.3057757 0.5582151 0.7712958 -0.1972753 0.5743466 0.7944864 -0.1815376 0.6760661 0.714128 -0.2505651 0.6302567 0.7348427 -0.1826465 0.5956522 0.7822012 -0.1240054 0.6899083 0.7131965 -0.200401 0.4680099 0.8607009 0.03672015 0.9381747 0.3442091 0.04957705 0.6793632 0.7321255 0.0155965 0.9998406 -0.008699715 0.01213753 0.9992033 0.03801965 0.1562021 0.9555492 0.2500532 0.2583191 0.9184108 0.2996546 0.09982287 0.9648482 0.2431119 -0.1012308 0.8491793 0.5183115 0.04868984 0.9561007 -0.2889654 0.230065 0.9223643 -0.3103453 0.09308928 0.8512195 -0.5164879 0.09422677 0.8130387 -0.5745341 0.1115036 0.8386624 -0.5331159 0.07969176 0.8317755 -0.5493623 -0.7027466 0.07229387 -0.7077576 -0.294443 0.2720836 -0.9161189 -0.154777 0.1346495 -0.9787306 0.08505058 -0.012147 -0.9963027 0.1592518 -0.2183867 -0.9627805 0.1683053 -0.3900751 -0.9052706 -0.3542461 -0.089199 -0.9308884 0.04897212 -0.2423043 -0.9689636 0.1657149 -0.4321091 -0.8864651 0.1540518 -0.6006776 -0.7845091 -0.3418583 -0.2983005 -0.8911509 0.03738087 -0.4509434 -0.8917694 0.1290578 -0.627626 -0.7677432 0.09120571 -0.7660329 -0.6362981 -0.5076357 -0.431353 -0.7458155 -0.8081089 -0.1277434 -0.5750146 -0.9900388 -0.03731381 -0.1357607 -0.7246484 -0.5506054 0.4143894 -0.6009795 0.4911891 0.6305212 -0.1720231 -0.003013432 0.9850883 -0.1720162 -0.003554105 0.9850877 -0.1836196 0.2202664 0.9580014 -0.006988406 0.8633782 0.5045092 0.1533947 0.9113709 0.3819335 -0.0682643 0.7681234 0.6366527 -0.05270093 0.853082 0.5191088 0.190666 0.8724182 -0.4500368 0.2892976 0.8075113 -0.5140354 0.07728689 0.7965888 -0.5995608 0.04782354 0.7310783 -0.6806155 0.02037614 0.8745533 -0.4845013 0.06477457 0.8757539 -0.4783926 -0.7379148 0.4327703 -0.5178724 -0.8224526 0.1973556 -0.5335004 -0.4943864 0.279495 -0.8230825 -0.4326113 -0.4553148 -0.7781619 -0.3574085 -0.4883142 -0.7961209 -0.9887244 0.03893125 -0.1445976 -0.9877984 0.1065036 -0.113628 -0.9515215 0.2738897 0.1399688 -0.9846692 0.05004745 -0.1670991 -0.8401064 0.5258703 0.1329727 -0.591861 0.6526467 0.4730253 -0.319579 0.8682792 0.3794213 -0.5628743 0.8219779 0.08674603 -0.1327177 0.9737468 0.1849412 -0.1857963 0.9804282 -0.06511789 -0.2466218 0.7339459 0.6328516 -0.07621574 0.9510576 0.2994672 -0.1854366 0.8147189 0.5494056 -0.2465081 0.7341685 0.6326377 -0.1674751 0.7892048 0.5908535 -0.3910224 0.7138765 0.5809319 -0.1847959 0.7838807 0.5927745 -0.6628113 0.4628441 0.5886057 -0.7208949 0.4407963 0.5347983 -0.6760948 -0.2976804 0.6740046 -0.6168475 -0.3038069 0.7260859 -0.5183586 -0.4403579 0.7330685 -0.74955 -0.3901813 0.5347274 -0.2999144 -0.4873834 0.8200663 -0.7246751 -0.5504965 0.4144873 -0.1741309 0.9362913 0.3050199 -0.1402403 0.8329991 0.535206 -0.1042893 0.842314 0.5288016 -0.1026268 0.8726539 0.4774338 -0.08689296 0.930241 0.3565127 0.03663796 0.9382898 0.3439041 -0.07610553 0.9511075 0.2993367 -0.1417708 0.8827226 0.4479976 -0.08637952 0.8150995 0.5728451 -0.3470228 0.7944099 0.4984859 -0.1417851 0.882719 0.4480002 -0.2339191 0.8811256 0.4109739 -0.4457443 0.8484045 0.2855204 0.001861035 0.999954 0.009409844 -0.005635499 0.9999419 0.009194254 -0.0235601 0.9744629 0.2233096 -0.001218676 0.9999856 0.005223631 -0.03381735 0.9401488 0.339082 -0.06632435 0.9226073 0.3799959 -0.1208687 0.6997051 0.7041332 -0.03384602 0.940026 0.3394196 -0.05486267 0.9447402 -0.3231968 0.02025312 0.8746206 -0.484385 -0.1810224 0.8689889 -0.4605315 0.07700568 0.7966218 -0.599553 -0.9750427 0.001250147 -0.2220144 -0.9785924 0.03695571 -0.2024628 -0.9555566 0.1141468 -0.2718125 -0.9772567 0.1018123 -0.1860209 -0.8729915 0.3838127 -0.3009548 -0.9083441 0.4026293 -0.1131401 -0.6257404 0.7537288 -0.2008532 -0.9832563 0.0506137 -0.1750581 -0.2393165 0.9323502 -0.2710178 -0.1860254 0.3317295 0.9248515 -0.1224821 -0.7001276 0.7034341 -0.08193963 -0.9401008 0.3309025 -0.06524538 -0.9224957 0.3804535 -0.05280894 -0.9743969 0.2185449 -0.08184969 -0.9402253 0.3305708 0.002686798 -0.999994 -0.002209842 -2.25031e-4 -0.9999943 0.003354549 -0.003098487 -0.9999917 -0.002687454 0.3084071 -0.5041405 -0.8066769 0.6199588 -0.3198579 -0.7164789 0.5290126 -0.3648163 -0.766195 0.5702153 -0.4939253 -0.656424 0.6201816 -0.3199784 -0.7162323 0.7996982 -0.5397702 -0.2629281 0.3636882 -0.9296032 0.05973899 0.02010369 -0.9734976 0.2278117 0.1538063 -0.9863927 -0.05807912 0.002857208 -0.9999958 6.20239e-4 -0.001572787 -0.9999983 -9.10072e-4 -0.008229732 -0.999964 -0.00206536 -0.001620233 -0.9999983 -9.23263e-4 -0.008277595 -0.9999636 -0.002075314 -0.0347197 -0.9840217 -0.1746308 -0.3692335 -0.9261957 0.07634323 -0.03478127 -0.9840214 -0.1746207 -0.4548915 -0.8883739 0.06217288 -0.3883559 -0.9208608 -0.03457152 0.4035011 0.6275808 0.6658297 0.3113906 0.4021568 0.8609912 -0.0382319 0.484456 0.8739799 0.3112978 0.4019525 0.8611202 -0.02371072 0.8755269 0.4825874 0.2320951 0.9153158 0.3291336 -0.006686747 0.9915398 0.1296305 0.327737 0.9446662 0.01393592 -0.006976723 0.9915569 0.1294849 0.1191936 0.9918725 0.04451745 -0.1882575 0.9396342 -0.285739 0.3113039 0.3174523 0.8957198 0.2173441 0.3769094 0.9003893 -0.06857347 0.6962388 0.7145274 -0.08639079 0.7324979 0.6752654 0.2976236 0.5007134 0.8128384 0.02807712 0.4788137 0.8774675 0.2101483 0.6878391 0.694777 0.4509491 0.7323521 0.5102015 0.2200673 0.7850013 0.5790885 0.1019786 0.8498879 0.5170019 0.450842 0.7324264 0.5101894 0.2324051 0.9152032 0.3292279 0.3743611 0.9247363 0.06867861 0.07992029 0.9759694 -0.2027229 0.1244672 0.986292 0.1083332 0.001418352 0.9999991 -4.15983e-5 0.1244834 0.9862915 0.1083193 0.00134164 0.9999991 -3.93641e-5 -0.001341462 0.9999991 4.65259e-5 -0.00641334 0.9999791 -8.66424e-4 -0.001492619 0.9999989 5.1632e-5 -0.006423592 0.9999791 -8.68071e-4 -0.09339869 0.9836546 0.1539491 -0.2576561 0.9638194 -0.06830471 -0.0934444 0.983649 0.1539574 -0.4157513 0.8843516 -0.2123043 -0.3791547 0.9197844 -0.1011853</float_array>
          <technique_common>
            <accessor source="#polygons-mesh-normals-array" count="995" stride="3">
              <param name="X" type="float"/>
              <param name="Y" type="float"/>
              <param name="Z" type="float"/>
            </accessor>
          </technique_common>
        </source>
        <vertices id="polygons-mesh-vertices">
          <input semantic="POSITION" source="#polygons-mesh-positions"/>
        </vertices>
        <triangles material="Surface_1_001-material" count="832">
          <input semantic="VERTEX" source="#polygons-mesh-vertices" offset="0"/>
          <input semantic="NORMAL" source="#polygons-mesh-normals" offset="1"/>
          <p>0 0 1 0 2 1 3 2 4 3 1 2 3 4 1 4 0 4 5 5 6 6 7 7 6 8 5 9 8 8 9 10 10 11 11 12 12 13 13 14 9 15 10 16 14 17 15 18 16 19 17 20 18 21 16 22 8 23 17 24 7 25 16 26 19 25 20 27 21 28 22 29 7 30 23 31 5 32 23 33 7 34 24 35 21 36 18 37 17 38 21 39 20 40 18 41 25 42 24 43 26 44 24 45 25 46 23 47 22 48 26 49 20 50 27 51 28 51 29 51 30 52 29 52 31 52 27 53 29 53 30 53 32 54 33 55 34 56 35 57 36 58 37 59 38 60 37 60 36 60 39 61 40 61 41 62 25 63 26 64 22 65 42 66 43 67 44 68 32 69 34 69 45 69 46 70 47 71 48 72 47 73 46 74 49 75 43 76 42 77 50 76 51 78 32 79 45 80 52 81 53 81 54 82 55 83 56 84 57 85 58 86 49 87 59 88 60 89 61 89 62 89 63 90 64 91 65 92 49 93 58 94 47 95 66 96 67 97 68 98 69 99 70 100 71 101 69 102 71 103 72 103 66 104 50 105 67 106 73 107 74 108 75 109 70 110 69 111 73 110 76 112 77 112 78 112 79 113 76 114 78 115 79 116 78 117 80 118 80 118 78 117 81 119 80 120 81 121 82 122 83 123 84 123 60 123 85 124 86 125 87 126 88 127 87 126 89 128 89 128 87 126 86 125 89 128 86 125 90 129 88 127 89 128 91 130 92 131 85 132 93 133 93 134 85 124 87 126 93 134 87 126 88 127 88 135 94 136 95 137 96 138 97 139 98 140 99 141 100 142 101 143 102 144 103 145 104 146 104 147 105 148 106 149 107 150 108 151 109 152 107 153 109 154 81 155 81 156 109 157 110 158 81 159 110 160 111 161 81 162 111 163 82 164 105 165 104 166 112 167 105 168 112 169 113 170 114 171 99 172 115 173 116 174 117 174 118 174 102 175 44 176 43 177 44 178 102 179 119 180 119 181 102 182 104 183 119 181 104 183 106 184 120 185 121 186 122 187 121 188 120 189 123 190 123 190 120 189 38 191 123 190 38 191 124 192 124 192 38 191 125 193 124 192 125 193 126 194 37 195 38 196 120 197 36 198 125 199 38 200 96 201 127 202 128 203 96 201 129 204 127 202 127 202 129 204 100 205 127 206 100 207 130 208 131 209 115 210 101 211 101 211 115 210 99 212 100 213 129 204 101 211 101 211 129 204 96 201 101 211 96 201 131 209 132 214 133 215 134 216 77 217 76 218 134 219 134 220 76 221 135 222 134 223 135 224 132 225 132 226 136 227 133 228 133 229 136 230 137 231 133 232 137 233 138 234 138 235 137 236 139 237 138 235 139 237 140 238 138 235 140 238 118 239 118 240 140 241 141 242 118 243 141 244 116 245 142 246 143 247 144 248 94 249 145 250 95 251 95 251 145 250 146 252 95 251 146 252 147 253 94 249 143 247 145 250 145 250 143 247 142 246 145 250 142 246 146 252 146 252 142 246 148 254 146 252 148 255 147 253 147 256 148 257 149 258 44 259 119 260 42 261 42 261 119 260 106 262 11 263 58 264 150 265 150 265 58 264 59 266 11 267 150 268 9 269 9 269 150 268 12 270 0 271 2 272 151 273 151 273 2 272 54 274 20 275 152 276 18 277 18 277 152 276 16 278 24 279 152 276 26 280 26 280 152 276 20 275 24 279 7 281 152 276 152 276 7 282 19 283 152 276 19 283 16 278 52 284 54 285 153 286 153 286 54 285 2 287 55 288 57 289 154 290 154 291 57 292 75 293 39 294 53 295 40 296 40 296 53 295 52 297 49 298 12 299 59 300 59 301 12 302 150 303 155 304 98 305 156 306 156 306 98 305 97 307 156 306 97 307 157 308 158 309 155 304 159 310 159 310 155 304 156 306 159 310 156 306 160 311 160 311 156 306 157 308 160 312 157 313 161 314 11 315 10 316 162 317 162 317 10 316 163 318 162 317 163 318 164 319 106 320 165 321 42 322 42 322 165 321 166 323 42 322 166 323 50 324 50 324 166 323 167 325 50 324 167 325 67 326 67 327 167 328 168 329 67 330 168 331 169 332 169 333 168 334 163 318 169 333 163 318 15 335 15 335 163 318 10 316 170 336 171 337 113 338 113 339 171 340 172 341 113 339 172 341 105 342 105 342 172 341 173 343 105 342 173 343 106 320 106 320 173 343 174 344 106 320 174 344 165 321 165 321 174 344 175 345 165 321 175 345 176 346 162 317 177 347 11 315 11 315 177 347 178 348 11 315 178 348 58 349 58 349 178 348 179 350 58 349 179 350 47 351 47 351 179 350 180 352 47 351 180 352 48 353 48 354 180 355 171 356 48 357 171 358 170 359 174 344 181 360 175 345 182 361 173 362 172 363 178 348 183 364 179 350 178 348 177 347 184 365 184 365 177 347 185 366 30 367 31 368 186 369 186 370 31 371 4 372 186 370 4 372 3 373 10 374 9 375 14 376 14 377 9 378 13 379 187 380 15 381 188 382 188 383 15 384 14 385 7 386 6 387 16 388 16 388 6 387 8 389 15 390 187 391 169 392 169 392 187 391 68 393 169 394 68 395 67 396 25 397 189 398 23 399 23 399 189 398 153 400 23 399 153 400 5 401 5 401 153 400 2 402 5 401 2 402 8 403 8 403 2 402 1 404 8 403 1 404 4 405 190 406 22 407 191 408 191 408 22 407 21 409 191 408 21 409 31 410 31 411 21 412 17 413 31 411 17 413 4 414 4 405 17 415 8 403 31 410 29 416 191 408 191 408 29 416 28 417 191 408 28 418 190 406 41 419 40 420 189 398 189 398 40 420 52 421 189 398 52 421 153 400 41 422 189 398 190 406 190 406 189 398 25 397 190 406 25 397 22 407 75 423 57 424 73 425 73 426 57 427 70 428 55 429 192 430 56 431 56 431 192 430 193 432 56 431 193 432 45 433 45 433 193 432 51 434 194 435 195 436 196 437 196 437 195 436 197 438 196 437 197 438 198 439 198 439 197 438 199 440 195 436 200 441 197 438 197 438 200 441 201 442 197 438 201 442 199 440 200 441 195 436 202 443 203 444 204 445 205 446 205 447 204 448 202 443 205 449 202 450 194 451 194 435 202 443 195 436 123 452 206 453 121 454 121 454 206 453 203 455 121 456 203 457 207 458 207 458 203 457 205 459 207 460 205 461 208 462 208 463 205 464 194 465 208 466 194 467 120 468 120 469 194 470 196 471 120 472 196 473 37 474 37 475 196 437 198 439 37 476 198 477 35 478 35 478 198 477 199 479 35 480 199 481 36 482 36 483 199 484 209 485 36 486 209 487 125 488 125 489 209 490 210 491 125 492 210 493 126 494 126 495 210 491 211 496 126 497 211 498 212 499 212 499 211 500 213 501 212 499 213 501 214 502 214 502 213 501 215 503 214 502 215 503 216 504 216 504 215 503 217 505 218 506 219 507 200 441 200 441 219 507 220 508 200 441 220 508 201 442 201 442 220 508 221 509 201 442 221 509 209 510 209 511 221 509 222 512 12 513 200 441 13 514 13 514 200 441 202 443 13 514 202 443 204 448 188 515 217 505 223 516 223 516 217 505 215 503 223 516 215 503 213 501 214 502 124 517 212 499 212 499 124 517 126 497 207 518 122 519 121 520 207 460 208 462 122 521 122 522 208 523 120 524 201 442 209 510 199 525 48 526 218 527 46 528 46 529 218 506 200 441 46 530 200 441 49 531 49 531 200 441 12 513 14 532 13 514 188 515 188 515 13 514 204 448 188 515 204 448 217 505 217 505 204 448 203 533 217 505 203 534 216 504 216 504 203 535 206 453 216 504 206 453 214 502 214 502 206 453 123 452 214 502 123 452 124 517 187 536 188 515 223 516 43 537 66 538 223 516 223 516 66 538 68 539 223 516 68 539 187 536 43 537 223 516 102 540 213 501 224 541 223 516 223 516 224 541 103 542 223 516 103 542 102 540 211 500 224 541 213 501 209 490 222 543 210 491 210 491 222 543 211 496 211 544 222 512 224 541 224 541 222 512 221 509 224 541 221 509 103 542 103 542 221 509 220 508 103 542 220 508 112 545 103 546 112 547 104 548 50 549 66 550 43 551 39 552 41 553 225 554 225 554 41 553 190 555 225 554 190 555 226 556 226 556 190 555 28 557 226 556 28 557 27 558 227 559 72 560 228 561 228 562 72 563 63 564 228 565 63 566 65 567 64 568 63 569 229 570 229 571 63 572 33 573 61 574 69 575 62 576 62 576 69 575 227 577 62 576 227 577 60 578 60 578 227 577 230 579 60 578 230 579 83 580 61 574 231 581 69 575 142 582 84 583 232 584 232 584 84 583 233 585 232 584 233 585 234 586 234 586 233 585 183 587 234 586 183 587 178 588 84 583 83 580 235 589 235 589 83 580 230 579 235 589 230 579 236 590 236 590 230 579 237 591 236 590 237 591 238 592 238 592 237 591 239 593 238 592 239 593 180 594 180 594 239 593 240 595 180 596 240 595 171 597 171 597 240 595 241 598 171 597 241 598 172 599 172 600 241 598 242 601 172 600 242 601 243 602 243 602 242 601 244 603 243 602 244 603 245 604 245 604 244 603 246 605 245 604 246 605 247 606 247 606 246 605 248 607 247 606 248 607 249 608 249 608 248 607 51 78 249 608 51 609 193 610 227 577 69 575 72 611 73 612 69 575 74 613 74 613 69 575 231 581 74 613 231 581 250 614 250 614 231 581 251 615 250 614 251 615 252 616 253 617 254 618 255 619 255 619 254 618 256 620 255 619 256 620 257 621 257 621 256 620 258 622 257 621 258 622 259 623 259 623 258 622 260 624 259 623 260 624 261 625 261 625 260 624 262 626 261 625 262 626 263 627 263 627 262 626 264 628 263 627 264 628 265 629 265 629 264 628 245 604 265 629 245 604 247 606 86 630 254 618 90 631 90 631 254 618 253 617 183 587 233 585 179 632 179 632 233 585 238 592 179 632 238 592 180 594 236 590 238 592 235 589 235 589 238 592 233 585 235 589 233 585 84 583 228 633 65 634 230 579 230 579 65 634 266 635 230 579 266 635 237 591 237 591 266 635 239 593 230 636 227 637 228 638 252 616 267 639 250 614 250 614 267 639 75 640 250 614 75 640 74 641 268 642 269 643 270 644 178 588 269 643 234 586 234 586 269 643 268 642 234 586 268 642 232 584 232 584 268 642 148 645 232 584 148 645 142 646 65 634 64 647 266 635 266 635 64 647 271 648 266 635 271 648 239 593 239 593 271 648 240 595 64 647 229 649 271 648 271 648 229 649 272 650 271 648 272 650 240 595 240 595 272 650 273 651 240 595 273 651 241 598 241 598 273 651 274 652 241 598 274 652 242 601 242 601 274 652 275 653 242 601 275 653 276 654 276 654 275 653 277 655 276 654 277 655 248 607 248 607 277 655 32 656 248 607 32 79 51 78 278 657 229 649 279 658 279 658 277 655 278 657 278 657 277 655 275 653 278 657 275 653 274 652 277 655 279 658 32 659 193 610 192 660 249 608 249 608 192 660 280 661 249 608 280 661 281 662 281 662 280 661 263 627 281 662 263 627 265 629 192 660 55 663 280 661 280 661 55 663 282 664 280 661 282 664 263 627 263 627 282 664 261 625 55 663 154 665 282 664 282 664 154 666 267 639 282 664 267 639 259 623 259 623 267 639 252 616 259 623 252 616 257 621 257 621 252 616 251 615 257 621 251 615 255 619 255 619 251 615 231 581 255 619 231 581 253 617 253 617 231 581 61 574 253 617 61 574 90 631 90 631 61 574 60 667 90 631 60 667 144 668 144 669 60 670 84 671 144 672 84 673 142 674 267 639 154 666 75 640 256 620 283 675 258 622 258 622 283 675 284 676 258 622 284 676 285 677 285 677 284 676 286 678 285 677 286 678 287 679 287 679 286 678 186 680 287 679 186 680 288 681 288 681 186 680 3 682 288 681 3 682 289 683 289 683 3 682 0 684 289 683 0 685 290 686 291 687 292 688 293 689 293 689 292 688 294 690 293 689 294 690 295 691 294 692 292 693 86 694 86 695 292 688 291 687 85 696 92 697 296 698 88 699 95 700 147 701 269 643 178 588 184 702 274 652 273 651 278 657 278 657 273 651 272 650 278 657 272 650 229 649 261 625 282 664 259 623 285 677 260 624 258 622 293 689 295 691 297 703 297 703 295 691 298 704 297 703 298 704 299 705 299 705 298 706 300 707 299 705 300 707 301 708 162 709 302 710 177 711 177 711 302 710 303 712 177 711 303 712 185 713 185 713 303 712 304 714 185 713 304 714 184 702 184 702 304 714 305 715 184 702 305 715 269 643 269 643 305 715 149 716 269 643 149 716 270 644 270 644 149 716 148 717 270 644 148 718 268 642 162 709 306 719 302 710 162 709 164 720 306 719 306 719 164 720 307 721 306 719 307 721 308 722 308 722 307 721 309 723 308 722 309 723 100 724 164 720 163 725 307 721 307 721 163 725 310 726 307 721 310 726 309 723 309 723 310 726 311 727 309 723 311 727 312 728 167 729 313 730 168 731 168 731 313 730 314 732 168 731 314 732 315 733 315 733 314 732 316 734 315 733 316 734 317 735 317 735 316 734 318 736 317 735 318 736 319 737 181 738 320 739 175 740 175 740 320 739 321 741 175 740 321 741 176 742 176 742 321 741 322 743 176 742 322 743 165 744 165 744 322 743 323 745 165 744 323 745 166 746 166 746 323 745 324 747 166 746 324 747 325 748 325 748 324 747 326 749 325 748 326 749 327 750 327 750 326 749 328 751 327 750 328 751 329 752 329 752 328 751 80 753 329 752 80 753 82 754 242 601 276 654 244 603 244 603 276 654 248 607 244 603 248 607 246 605 265 629 247 606 330 755 330 755 247 606 249 608 330 755 249 608 281 662 281 662 265 629 330 755 260 624 285 677 331 756 331 756 285 677 287 679 331 756 287 679 288 681 332 757 333 758 334 759 303 712 334 759 304 714 304 714 334 759 333 758 304 714 333 758 305 715 305 715 333 758 296 698 305 715 296 698 149 716 149 716 296 698 92 697 149 716 92 697 147 701 147 701 92 697 93 760 147 701 93 760 88 699 319 737 315 733 317 735 316 734 314 732 335 761 335 761 314 732 313 730 335 761 313 730 336 762 321 741 337 763 322 743 322 743 337 763 338 764 322 743 338 764 323 745 323 745 338 764 339 765 323 745 339 765 324 747 321 741 340 766 337 763 337 763 340 767 341 768 337 763 341 768 338 764 338 764 341 768 342 769 338 764 342 769 339 765 339 765 342 769 343 770 339 765 343 770 344 771 344 771 343 770 345 772 344 771 345 772 346 773 346 773 345 772 347 774 346 773 347 774 348 775 348 775 347 774 349 776 348 775 349 776 136 777 136 777 349 776 350 778 136 779 350 778 137 780 137 780 350 778 351 781 137 780 351 781 139 782 139 782 351 781 352 783 139 782 352 783 140 784 140 784 352 783 353 785 243 602 245 604 354 786 354 786 245 604 355 787 354 786 355 787 356 788 356 788 355 787 357 789 245 604 264 628 355 787 262 626 358 790 264 628 264 628 358 790 357 789 264 628 357 789 355 787 286 678 30 791 186 680 300 707 359 792 301 708 301 708 359 792 226 793 301 708 226 793 27 794 360 795 332 757 361 796 361 796 332 757 334 759 361 796 334 759 362 797 362 797 334 759 303 712 362 797 303 712 114 798 114 798 303 712 302 710 114 798 302 710 363 799 363 799 302 710 306 719 363 799 306 719 364 800 364 800 306 719 308 722 364 800 308 722 100 801 362 797 365 802 361 796 361 796 365 802 360 795 114 798 366 803 362 797 362 797 366 803 367 804 362 797 367 804 365 802 365 802 367 804 368 805 365 802 368 805 369 806 114 798 115 807 366 803 366 803 115 807 158 808 366 803 158 809 370 810 370 810 158 811 159 812 370 810 159 812 371 813 371 813 159 812 372 814 371 813 372 814 373 815 364 816 100 817 363 818 312 728 130 819 309 723 309 723 130 819 100 820 329 752 82 754 336 762 336 762 82 754 111 821 336 762 111 821 335 761 335 761 111 821 110 822 335 761 110 822 316 734 316 734 110 822 109 823 316 734 109 824 318 736 318 736 109 824 108 825 318 736 108 825 116 826 329 752 336 762 374 827 374 827 336 762 313 730 374 827 313 730 325 748 325 748 313 730 167 828 325 748 167 828 166 746 329 752 374 827 327 750 327 750 374 827 325 748 328 751 326 749 375 829 375 829 326 749 324 747 375 829 324 747 376 830 376 830 324 747 339 765 328 751 375 829 377 831 377 831 375 829 376 830 377 831 376 830 378 832 378 832 376 830 339 765 378 832 339 765 344 771 379 833 340 834 380 835 380 835 340 766 321 741 380 835 321 741 381 836 381 836 321 741 320 739 381 836 320 739 382 837 382 837 320 739 181 738 382 837 181 738 174 838 379 833 380 835 383 839 383 839 380 835 381 836 383 839 381 836 384 840 384 840 381 836 382 837 384 840 382 837 385 841 385 841 382 837 174 838 385 841 174 838 173 842 384 840 386 843 383 839 386 843 384 840 387 844 387 844 384 840 385 841 387 844 385 841 388 845 388 845 385 841 173 842 388 845 173 842 182 846 356 847 357 789 389 848 389 848 357 789 289 683 389 848 289 683 290 686 289 683 357 789 288 681 288 681 357 789 358 790 288 681 358 790 331 756 331 756 358 790 262 626 331 756 262 626 260 624 27 794 30 849 301 708 301 708 30 791 286 678 301 708 286 678 299 705 299 705 286 678 284 676 299 705 284 676 297 703 297 703 284 676 283 675 297 703 283 675 293 689 293 689 283 675 256 620 293 689 256 620 291 687 291 687 256 620 254 618 291 687 254 618 86 850 365 802 369 806 360 795 370 810 371 813 367 804 367 804 371 813 373 815 367 804 373 815 368 851 367 804 366 803 370 810 158 808 115 807 155 852 155 852 115 807 131 853 155 852 131 853 96 854 312 728 390 855 130 856 390 855 312 728 318 736 318 736 312 728 311 727 318 736 311 727 319 737 319 737 311 727 310 726 319 737 310 726 315 733 315 733 310 726 163 725 315 733 163 725 168 731 318 736 116 857 390 855 390 855 116 857 391 858 80 753 328 751 79 859 79 860 328 751 377 831 79 860 377 831 76 861 76 862 377 831 392 863 392 863 377 831 378 832 392 863 378 832 393 864 393 864 378 832 344 771 393 864 344 771 346 773 343 770 342 769 394 865 394 865 342 769 341 768 394 865 341 768 395 866 395 866 341 768 340 867 395 866 340 867 379 833 379 833 383 839 389 848 389 848 383 839 386 843 389 848 386 843 356 868 356 868 386 843 387 844 356 869 387 844 354 786 354 786 387 844 388 845 354 786 388 845 243 602 243 602 388 845 182 846 243 602 182 846 172 600 225 870 226 793 396 871 396 871 226 793 359 792 396 871 359 792 397 872 225 870 396 871 39 873 396 871 397 872 398 874 397 872 399 875 398 874 398 874 399 875 400 876 398 874 400 876 401 877 401 877 400 876 402 878 401 877 402 878 403 879 403 879 402 878 350 778 403 879 350 778 349 776 159 812 160 880 372 814 161 881 404 882 160 883 160 883 404 882 405 884 160 885 405 884 372 814 372 814 405 884 406 886 372 814 406 886 373 815 373 815 406 886 399 875 373 815 399 875 368 887 368 887 399 875 397 872 368 888 397 872 369 806 369 806 397 872 359 792 369 806 359 792 360 795 360 795 359 792 300 707 360 795 300 707 332 757 332 757 300 707 298 889 332 757 298 889 333 758 333 758 298 890 295 691 333 758 295 691 296 698 296 698 295 691 294 690 296 698 294 690 85 891 85 892 294 893 86 894 161 895 407 896 404 882 404 882 407 896 353 785 404 882 353 785 405 884 405 884 353 785 408 897 405 884 408 897 406 886 406 886 408 897 409 898 406 886 409 898 400 876 400 876 409 898 410 899 400 876 410 899 402 878 402 878 410 899 352 783 402 878 352 783 351 781 130 900 390 855 161 901 161 901 390 855 391 858 161 901 391 858 407 896 407 896 391 858 116 857 407 896 116 857 353 785 353 902 116 903 141 904 353 905 141 906 140 907 411 908 130 900 161 901 157 909 97 910 127 911 127 911 97 910 128 912 97 913 96 914 128 915 130 900 411 908 127 911 127 911 411 908 161 901 127 911 161 901 157 909 393 864 348 775 392 863 392 863 348 775 135 916 392 917 135 918 76 919 348 775 393 864 346 773 0 685 151 920 290 686 290 686 151 920 54 921 290 686 54 921 412 922 412 922 54 921 413 923 412 922 413 923 414 924 414 924 413 923 415 925 414 924 415 925 416 926 416 926 415 925 401 877 416 926 401 877 403 879 53 927 413 923 54 921 53 927 39 873 413 923 413 923 39 873 396 871 413 923 396 871 415 925 415 925 396 871 398 874 415 925 398 874 401 877 406 886 400 876 399 875 352 783 410 899 353 785 353 785 410 899 409 898 353 785 409 898 408 897 135 916 348 775 132 928 132 928 348 775 136 777 349 776 347 774 403 879 403 879 347 774 345 772 403 879 345 772 416 926 416 926 345 772 343 770 416 926 343 770 414 924 414 924 343 770 394 865 414 924 394 865 412 922 412 922 394 865 395 866 412 922 395 866 290 686 290 686 395 866 379 833 290 686 379 833 389 848 350 778 402 878 351 781 96 854 98 929 155 852 88 930 91 931 94 932 94 933 91 934 89 935 94 933 89 935 143 936 143 936 89 935 90 631 143 936 90 631 417 937 417 937 90 631 144 668 417 937 144 668 143 936 32 938 279 939 33 940 33 941 279 942 229 943 63 944 72 945 33 946 33 946 72 945 71 947 33 946 71 947 34 948 34 948 71 947 70 949 34 950 70 951 45 952 45 952 70 951 57 953 45 954 57 955 56 956 100 957 99 958 363 959 363 799 99 960 114 798 113 961 219 962 170 963 170 963 219 962 218 964 170 965 218 966 48 967 108 968 107 969 116 970 116 971 107 972 117 973 112 974 220 975 113 976 113 977 220 978 219 979 81 980 78 981 107 982 107 982 78 981 77 983 107 984 77 985 117 986 117 986 77 985 134 987 117 988 134 989 118 990 118 990 134 989 133 991 118 992 133 993 138 994</p>
        </triangles>
      </mesh>
    </geometry>
  </library_geometries>
  <library_visual_scenes>
    <visual_scene id="Scene" name="Scene">
      <node id="mh00400-j00_lk1_2" name="mh00400-j00_lk1_2" type="NODE">
        <matrix sid="transform">1 0 0 0.192 0 1 0 0 0 0 1 -0.795 0 0 0 1</matrix>
        <instance_geometry url="#polygons-mesh" name="mh00400-j00_lk1_2">
          <bind_material>
            <technique_common>
              <instance_material symbol="Surface_1_001-material" target="#Surface_1_001-material"/>
            </technique_common>
          </bind_material>
        </instance_geometry>
      </node>
    </visual_scene>
  </library_visual_scenes>
  <scene>
    <instance_visual_scene url="#Scene"/>
  </scene>
</COLLADA>