<?xml version="1.0" encoding="utf-8"?>
<COLLADA xmlns="http://www.collada.org/2005/11/COLLADASchema" version="1.4.1" xmlns:xsi="http://www.w3.org/2001/XMLSchema-instance">
  <asset>
    <contributor>
      <author>Blender User</author>
      <authoring_tool>Blender 4.2.0 commit date:2024-07-16, commit time:06:20, hash:a51f293548ad</authoring_tool>
    </contributor>
    <created>2025-08-13T11:55:12</created>
    <modified>2025-08-13T11:55:12</modified>
    <unit name="meter" meter="1"/>
    <up_axis>Z_UP</up_axis>
  </asset>
  <library_effects>
    <effect id="Surface_1_010-effect">
      <profile_COMMON>
        <technique sid="common">
          <lambert>
            <emission>
              <color sid="emission">0 0 0 1</color>
            </emission>
            <diffuse>
              <color sid="diffuse">0.200784 0.200784 0 1</color>
            </diffuse>
            <index_of_refraction>
              <float sid="ior">1</float>
            </index_of_refraction>
          </lambert>
        </technique>
      </profile_COMMON>
    </effect>
  </library_effects>
  <library_images/>
  <library_materials>
    <material id="Surface_1_010-material" name="Surface_1.010">
      <instance_effect url="#Surface_1_010-effect"/>
    </material>
  </library_materials>
  <library_geometries>
    <geometry id="polygons_007-mesh" name="polygons.007">
      <mesh>
        <source id="polygons_007-mesh-positions">
          <float_array id="polygons_007-mesh-positions-array" count="663">2.270851 -0.07177895 2.062215 2.273998 -0.08100599 2.064909 2.273558 -0.114504 2.091074 2.273998 -0.139007 2.125859 2.270973 -0.13451 2.123319 2.271001 -0.109697 2.091228 2.271104 -0.150328 2.15795 2.270533 -0.007109999 2.35496 2.273905 -0.06898796 2.342494 2.273998 -0.02820098 2.35496 2.277182 -0.007419943 2.302168 2.270917 -0.033939 2.29755 2.271048 0.009870946 2.302245 2.271432 -0.08674496 2.117855 2.271048 -0.05727899 2.115008 2.303844 -0.01936095 2.27808 2.304987 -1.31e-4 2.28162 2.305062 -0.04138296 2.268922 2.304004 0.009638965 2.279388 2.270552 0.007079958 2.044977 2.273474 0.01398098 2.042514 2.274092 -0.042391 2.047439 2.304023 0.116568 2.163029 2.271151 0.124012 2.163106 2.272266 0.114939 2.167877 2.30494 0.118506 2.172495 2.271404 0.125252 2.172264 2.30465 -0.03044998 2.315712 2.271198 -0.027116 2.318714 2.271217 -0.03548997 2.315943 2.277042 -0.05580598 2.286391 2.271001 -0.07449299 2.270538 2.273998 0.05554294 2.052595 2.273998 0.123469 2.102156 2.271001 0.109667 2.091228 2.270973 0.134557 2.123319 2.290846 -0.15878 2.196198 2.291211 -0.150018 2.246835 2.291211 -0.150018 2.153178 2.271132 -0.115357 2.165261 2.304968 -0.119467 2.16249 2.304818 -0.115124 2.168031 2.271058 -0.009823977 2.097769 2.277032 -0.03610998 2.104003 2.277182 0.007467985 2.097846 2.284787 -0.1464509 2.199969 2.271198 -0.08309996 2.285853 2.304921 -0.08783 2.283005 2.304903 -0.08309996 2.289008 2.304781 0.09074699 2.293703 2.271226 0.08407795 2.291548 2.271882 0.09578698 2.289547 2.304753 0.09167701 2.284237 2.271114 0.08617198 2.28339 2.304856 0.08275997 2.287931 2.270983 0.134557 2.276695 2.270898 0.03390896 2.102464 2.304219 -0.116675 2.236831 2.271151 -0.124042 2.236908 2.272312 -0.114969 2.23206 2.271114 0.125252 2.235677 2.304706 0.12502 2.228135 2.304612 0.120135 2.23737 2.270973 -0.13451 2.276695 2.274326 -0.146296 2.26038 2.273998 -0.123421 2.297858 2.304884 -0.089769 2.116932 2.304996 0.145568 2.139865 2.304893 -0.01028895 2.119471 2.271507 0.116103 2.236754 2.304828 0.116103 2.229135 2.288551 0.00800997 2.078684 2.289394 -0.007419943 2.077837 2.289769 -5.4e-5 2.06791 2.304893 -0.118536 2.227442 2.271395 -0.125282 2.227827 2.271638 0.120988 2.227442 2.274026 0.09346097 2.072143 2.304556 -0.126213 2.231521 2.273998 0.103929 2.318329 2.271001 0.109667 2.308786 2.27088 0.07182699 2.337876 2.277042 0.055776 2.113622 2.304463 0.03011 2.084225 2.271226 0.02708595 2.081378 2.271217 0.035537 2.084071 2.273539 0.06880295 2.342185 2.305034 -0.142109 2.266229 2.277014 -0.08550399 2.256147 2.273998 0.123469 2.297858 2.27102 0.074463 2.129476 2.277014 0.08547395 2.143867 2.304584 0.126183 2.168493 2.270936 0.150065 2.242526 2.26689 0.149755 2.198814 2.271001 0.149523 2.161028 2.304903 0.03786396 2.079607 2.283007 0.1587499 2.203893 2.283082 0.150065 2.153025 2.283082 0.150221 2.246989 2.303844 0.01933097 2.121934 2.304921 0.05445694 2.138865 2.271001 -0.109697 2.308786 2.30494 -0.03773897 2.320176 2.277032 0.03615796 2.296011 2.271076 0.05732595 2.285006 2.305081 -0.05060994 2.050979 2.303657 -0.09100896 2.069988 2.305025 -0.1109369 2.089073 2.30362 -0.129625 2.109082 2.304004 -0.136371 2.278773 2.303863 -0.152732 2.241218 2.303741 0.152857 2.241295 2.273998 0.138977 2.274155 2.305034 0.1395969 2.272847 2.305025 0.116103 2.306247 2.303592 0.09074699 2.329795 2.305071 0.05701595 2.34688 2.273998 0.02824896 2.35496 2.304004 0.027318 2.355114 2.273998 2.4e-5 2.3575 2.3045 -0.01362299 2.357423 2.305053 -0.04743099 2.350112 2.305109 -0.08783 2.331258 2.273998 -0.103959 2.318329 2.305053 -0.120475 2.301167 2.273998 0.138977 2.125859 2.273998 0.1499879 2.151947 2.304004 0.155106 2.172649 2.305053 0.157432 2.203509 2.303704 -0.01385599 2.04236 2.30495 0.037476 2.046131 2.305043 0.07601398 2.062061 2.305081 0.116103 2.093152 2.304004 0.136418 2.121241 2.304996 -0.145443 2.139865 2.30524 -0.157927 2.189579 2.270973 -0.149863 2.239371 2.296352 4.11e-4 2.11924 2.295912 0.04375696 2.1314 2.295791 -0.03548997 2.127398 2.295978 -0.06681597 2.154948 2.295978 0.07950299 2.188733 2.295969 -0.07457095 2.230059 2.296427 0.07089596 2.162875 2.295959 -0.03044998 2.273694 2.295987 0.06128096 2.251299 2.296278 0.07531595 2.228904 2.296352 -3.64e-4 2.280774 2.295828 0.03530496 2.272539 2.296278 -0.05371195 2.260226 2.296278 -0.07999795 2.190118 2.277014 -0.101865 2.191426 2.277014 -0.09015595 2.151947 2.277014 -0.07270997 2.12809 2.277014 0.07267999 2.271924 2.277014 0.09012597 2.248067 2.277014 0.101835 2.208742 2.277004 -0.09946095 2.222286 2.276761 0.09966397 2.178036 2.304509 -0.02990698 2.325871 2.27191 -0.033629 2.326409 2.304884 -0.125903 2.165261 2.271657 -0.125748 2.164876 2.304678 -0.09442096 2.287931 2.271441 -0.09279298 2.284929 2.304968 -0.088916 2.293779 2.27175 -0.088063 2.294703 2.270954 0.07818496 2.066756 2.304341 0.02987694 2.073297 2.271816 0.03352099 2.073682 2.304996 0.07647895 2.176343 2.305053 0.080666 2.209203 2.305006 0.06500297 2.248682 2.304987 0.03732097 2.271924 2.304734 0.02824896 2.324947 2.304921 0.03677797 2.323947 2.304903 0.03561496 2.316328 2.304987 0.028714 2.317097 2.271179 -0.094033 2.112006 2.304847 -0.09364598 2.109159 2.271544 -0.086124 2.107081 2.304641 -0.08356499 2.108928 2.271161 -0.03161299 2.073605 2.304641 -0.02835595 2.075221 2.271104 -0.02703797 2.079838 2.30494 -0.02843397 2.082994 2.271207 -0.03300899 2.084841 2.304912 -0.03572297 2.083686 2.304921 -0.036731 2.076067 2.27117 -0.03781598 2.078607 2.304697 -0.1221809 2.173033 2.271254 -0.119312 2.173264 2.271142 0.09066897 2.116701 2.304921 0.08779996 2.117009 2.271264 0.08299297 2.11393 2.304884 0.08299297 2.111006 2.304968 0.08896297 2.106235 2.271067 0.08617198 2.106619 2.271198 0.09353798 2.109313 2.304734 0.09423595 2.112314 2.271151 0.03088498 2.326025 2.27117 0.03778594 2.321407 2.270898 -0.07922297 2.331489 2.304612 -0.006721973 2.074066 2.304893 0.002814948 2.069064 2.271198 0.03305596 2.315174 2.271039 0.027318 2.319252 2.304154 0.004132986 2.080993 2.270983 0.09260797 2.157026 2.271058 0.102145 2.189041 2.270992 0.09974098 2.221978 2.271029 0.08787798 2.253454 2.271029 -0.08790796 2.14656 2.270992 -0.09977096 2.178036 2.27102 -0.1021749 2.210974 2.270983 -0.09263795 2.242988 2.304978 -0.08170396 2.200046 2.305034 -0.071159 2.162567 2.304978 -0.05154097 2.138326 2.304996 -0.070306 2.240371</float_array>
          <technique_common>
            <accessor source="#polygons_007-mesh-positions-array" count="221" stride="3">
              <param name="X" type="float"/>
              <param name="Y" type="float"/>
              <param name="Z" type="float"/>
            </accessor>
          </technique_common>
        </source>
        <source id="polygons_007-mesh-normals">
          <float_array id="polygons_007-mesh-normals-array" count="2043">-0.9170612 -0.1982859 -0.3459499 -0.4235624 -0.492685 -0.7601687 -0.6387597 -0.5315673 -0.5562575 -0.2563317 -0.8622559 -0.4368168 -0.7266862 -0.4792965 -0.4921402 -0.4735601 -0.6333389 -0.6120643 -0.7443224 -0.4793803 -0.4649503 -0.9457432 -0.2219438 -0.2372991 -0.9928441 -0.08283865 -0.08601361 -0.9170511 -0.1982825 -0.3459786 -0.9045966 -0.2905311 -0.3119242 -0.3128999 -0.8479002 -0.4279708 -0.7223273 -0.6432645 -0.2538781 -0.8637717 -0.03373068 0.5027533 -0.8518381 -0.2222387 0.4743227 -0.7024511 -0.1153956 0.702315 -0.05610525 -0.01546818 -0.9983051 0.3586391 0.3111214 -0.8801032 0.130064 -0.1206862 -0.9841333 -0.6150068 -0.08379286 -0.784057 -0.7267465 -0.479222 -0.4921239 -0.6149317 -0.08378857 -0.7841164 -0.8881305 0.1337521 -0.4396985 -0.97479 0.06734812 -0.2127177 0.996604 0.003031849 -0.0822882 0.9322512 0.01117259 -0.3616394 -0.8244463 0.02821797 -0.5652364 -0.3110777 0.06216472 -0.9483492 -0.2939764 -0.2663317 -0.9179571 0.1092079 0.4731166 0.8742051 0.08596056 0.3960816 -0.9141828 0.05382108 -0.3135761 0.9480366 0.4224121 0.5031124 -0.7539537 0.3230559 0.6762286 -0.6620799 0.358671 0.3113012 -0.8800265 -0.8880344 0.02325206 -0.4591888 -0.7891659 0.2203238 -0.5733016 -0.6898854 0.03405672 -0.723117 -0.6697072 0.5782305 -0.4659849 -0.9791339 0.1443905 -0.1429977 -0.9472613 0.2795171 -0.156736 -0.9991351 0.04158258 0 -0.52609 0.2649954 -0.8080885 -0.4641708 0.06890332 -0.8830617 -0.4488627 0.4804548 -0.7534492 -0.04515761 -0.7868508 0.6154891 -0.05632948 0.01550585 0.9982919 -0.387583 0.3264334 0.8621026 -0.2277413 -0.08559989 0.9699519 -0.1511698 -0.9865106 0.06280612 -0.4854487 -0.8742651 0 -0.08868622 -0.9768096 -0.1948789 -0.05782783 -0.7842348 0.6177636 0.0973134 -0.1729533 -0.9801108 0.4621584 0.3026923 0.8335389 0.3788063 0.1034175 0.9196797 0.3967427 0.5046112 0.7667874 0.0675776 -0.5418479 0.8377555 0.06448262 0.9667972 0.2472755 0.8898105 -0.1248426 -0.4389211 -0.05617505 0.01544934 0.9983015 0.3588016 -0.3112459 0.879993 0.1297602 0.120617 0.9841818 0.1047033 -0.4790731 -0.8715081 -0.1105989 -0.8780594 -0.465596 -0.7085177 -0.6076204 0.3588874 -0.2711282 -0.9063426 0.3240875 -0.3414437 -0.7514497 0.5645704 -0.9999848 -6.08174e-5 0.005529522 -0.9961169 -0.02433484 0.08461141 -0.1005219 0.8925317 -0.4396391 0.03253066 -0.1154639 -0.9927789 0.9959198 0.05027425 0.07494246 -0.1388085 -0.9856138 -0.09642416 0.08807605 -0.3849179 0.9187388 0.09775125 -0.881212 0.4625043 -0.03433769 0.1109116 0.993237 0.1058946 0.8799502 0.4631133 -0.06412178 0.5841405 -0.8091158 -0.7591828 0.462498 -0.4579706 -0.3612869 0.7310564 -0.5788164 -0.3627141 0.5566403 -0.7473889 0.04272621 0.9900534 -0.1340477 -0.6749585 0.4703105 0.5685412 -0.9824953 0.1312528 0.1321965 -0.9312369 0.1695529 0.3225675 -0.08544939 0.3804816 0.9208323 -0.5237374 -0.2658102 0.8093479 -0.4632068 -0.06930565 0.8835362 -0.4480778 -0.4806554 0.7537882 0.0538991 0.3032172 -0.9513959 -0.7843504 0.2834432 0.551774 -0.3032266 0.4240185 0.8533826 -0.3710753 0.6029238 0.706248 -0.9996098 -0.003332555 0.02773511 -0.974829 0.06728833 -0.2125578 -0.07262462 0.7772266 -0.6250156 -0.4488112 0.4806079 -0.7533822 -0.1365401 0.8279561 -0.5439168 -0.6916018 0.5674093 0.4469158 -0.9566 0.2392002 0.1664327 -0.9824946 0.1312267 0.132227 -0.07303375 -0.7771756 0.6250314 -0.4480033 -0.4807896 0.7537469 -0.1360882 -0.8278605 0.5441756 -0.08718514 -0.4636655 -0.8817104 0.004729032 -0.9999668 0.006654262 -0.08048146 -0.9788203 0.1882382 0.04288607 -0.990203 0.1328865 -0.07876557 -0.5067891 -0.8584643 -0.9999619 -0.00873965 1.44948e-5 -0.9853931 -0.04847699 0.1632497 -0.9961128 -0.02434343 0.08465778 -0.6402516 -0.6123235 0.4638296 -0.9800987 -0.1407805 0.1399547 -0.9471396 -0.2736291 0.1674925 -0.07233214 0.5187971 0.851832 -0.05625808 -0.01553559 -0.9982954 -0.3896709 -0.3263326 -0.861199 -0.228557 0.08528959 -0.9697874 -0.08463919 0.4704132 0.8783779 -0.1090897 0.4805792 -0.8701398 0.4628049 -0.3029336 -0.8330925 0.3789511 -0.1035254 -0.9196078 0.3953133 -0.5056881 -0.7668161 -0.1081299 -0.4864081 0.8670151 0.4225294 -0.5033399 0.7537361 0.3231527 -0.6762725 0.6619879 0.3588963 -0.3114311 0.8798887 -0.07956701 0.9780595 -0.192533 -0.1634038 -0.2786388 -0.946393 0.0209549 -0.3277937 -0.9445169 -0.1004094 -0.576089 -0.8111962 -0.483428 -0.6226018 -0.6153571 -0.1201754 -0.7853895 -0.6072242 -0.1003707 -0.5762053 -0.8111186 -0.2264464 -0.8926298 0.3897873 -0.04763084 -0.8779096 0.4764516 -0.0814898 -0.9720422 0.2202122 -0.007900238 0.9998072 0.0179764 -0.05928689 0.9712507 0.2305589 -0.006551504 0.9620782 0.2726953 -0.2569349 0.8700613 0.4206873 0.01434707 0.8626772 0.5055516 0.01436144 0.86262 0.5056486 -0.1563169 0.8876728 0.4331306 -0.2565323 0.7648876 0.5908792 0.01419824 0.7431964 0.6689228 -0.2660568 0.6304586 0.7292022 -0.004805207 0.5688619 0.8224191 -0.1637057 0.4635527 0.8708153 0.003399848 0.3414045 0.9399104 -0.1858232 0.1909723 0.9638462 0.009659409 0.1384172 0.990327 -0.245638 0.009303033 0.969317 0.004125297 -0.08182859 0.996638 -0.1349238 -0.1722704 0.9757656 0.02045953 -0.3098689 0.9505592 -0.002652645 -0.4312681 0.90222 0.02343523 -0.5606745 0.8277047 0.0233587 -0.5607521 0.8276543 -0.1978425 -0.4492287 0.871236 -0.2931498 -0.6293668 0.719695 0.02341622 -0.5608322 0.8275983 -0.165973 -0.6640974 0.7289909 0.01904696 -0.7421645 0.669947 -0.2282697 -0.7794123 0.5834461 -0.1436149 -0.9337654 0.3278065 -0.15105 -0.9865269 0.06283944 -0.02105438 -0.9994759 0.02459341 -0.2874592 0.8477588 -0.4457268 -0.2061114 0.9562194 -0.2077563 0.01098334 0.9369208 -0.3493691 0.01100057 0.9369263 -0.3493542 -0.06492108 0.9816317 -0.1794001 -0.01276445 0.9922786 -0.1233705 0.002907574 0.9845022 -0.175348 0.06006705 0.9979375 0.02264565 0.008825242 -0.08152645 -0.9966321 -0.1593818 0.0363897 -0.9865462 0.008752048 0.2321495 -0.9726408 -0.1693425 0.3764696 -0.9108204 0.02888256 0.4870162 -0.8729153 -0.2382645 0.5781069 -0.780399 0.02446216 0.7150021 -0.6986944 -0.2511104 0.7582143 -0.6017097 0.006097197 0.8504112 -0.5260833 -0.1644844 0.8657522 -0.4726713 0.0109955 0.9369084 -0.3494021 -0.6497867 -0.4034132 -0.6442321 -0.1635974 -0.2787082 -0.9463391 -0.3157548 -0.482142 -0.8172135 -0.152332 -0.4786526 -0.8646888 -0.315625 -0.4822844 -0.8171796 -0.100421 -0.5761621 -0.811143 -0.3036827 -0.689961 -0.6570622 -0.1757483 -0.7317711 -0.658501 -0.2562237 -0.8622524 -0.4368871 -0.1533353 -0.8785918 -0.4522885 -0.1201559 -0.7854375 -0.6071661 0.02509456 -0.9348628 -0.3541213 -0.2562146 -0.8623023 -0.4367941 0.02509391 -0.9348945 -0.3540375 -0.08862304 -0.9768158 -0.1948767 0.05332779 -0.9919239 -0.1150786 -0.2072057 -0.9638522 -0.1674954 -0.04169857 -0.9948501 0.09238207 -0.02022689 -0.9935011 -0.1120105 -0.0886178 -0.976835 -0.1947827 -0.7584647 -0.4635036 0.4581438 -0.3414477 -0.7513996 0.5646345 -0.397561 -0.5981035 0.6958573 -0.75634 0.4661914 0.4589286 -0.3710879 0.6029317 0.7062345 -0.3666936 0.7360873 0.5689563 -0.2357567 0.9571334 0.1682695 -0.06083148 0.9917494 0.1128397 -0.05927008 0.9712791 0.2304431 -0.01278001 0.9922933 -0.1232512 -0.06085324 0.9917502 0.1128209 -0.09760105 0.9951608 -0.01136225 -0.09771531 0.9951494 -0.01137763 -0.3186131 0.9222375 -0.2190062 -0.550622 0.823009 -0.1395406 -0.7363397 0.592617 -0.3265103 -0.2876214 0.8476886 -0.4457556 -0.3613139 0.7310724 -0.5787793 0.9987059 -0.00408703 0.05069595 0.9996533 -0.01714676 0.01998227 0.9997688 -0.00261265 0.02134418 0.9999691 0.007727146 -0.001469075 0.9997766 -0.02051204 0.005123257 0.9999008 0.01283413 -0.005814015 0.9972386 -0.0635302 0.03845965 0.9997512 0.008906841 -0.02045065 0.9999568 -0.009295701 -2.84059e-4 0.9991654 -0.03918325 -0.01153934 0.9982334 9.39356e-4 -0.05940824 0.9996943 0.001560091 -0.02467542 0.9989246 0.0327174 -0.03285568 0.9994882 0.0318064 0.003407061 -0.999975 8.36898e-4 -0.007027029 -0.999993 4.69852e-4 -0.003714919 -0.9999068 0.001527905 -0.01356858 -1 1.49997e-5 -1.6574e-4 -0.9999322 -0.01135313 0.002639412 -1 1.63413e-6 0 -1 8.33008e-5 -1.25876e-4 -0.9999322 -0.01134765 0.002639055 -0.9999932 4.61914e-4 -0.003665328 -1 5.15098e-5 -2.6731e-4 -0.999993 4.69077e-4 -0.003703236 -1 1.99487e-4 -1.59971e-4 -1 1.64093e-4 -4.97613e-4 -0.999975 -8.35855e-4 0.007031083 -1 -1.62568e-4 4.98235e-4 -0.9999931 -4.67837e-4 0.003695547 -0.999993 -4.68625e-4 0.003703117 -1 -2.38385e-4 -1.73009e-4 -0.9999932 -4.61694e-4 0.003666043 -1 -8.28658e-5 1.25293e-4 -0.9999999 3.65693e-5 5.46913e-4 -1 5.99482e-5 2.39587e-4 -1 0 0 -0.9999566 -0.009042561 0.002273797 -1 4.55532e-5 -6.45625e-5 -0.9999749 -8.37312e-4 0.007042825 -0.9999931 -4.68201e-4 0.003707528 -0.9999068 -0.00152713 0.0135737 -0.9989085 -0.04528981 0.01143538 -0.09442937 -0.9941817 0.05182689 -0.01008957 -0.9466227 -0.3221859 -0.01005256 -0.9465683 -0.3223471 0.0757966 -0.7576353 -0.648262 -0.008806705 0.3955484 0.9184029 0.03526711 0.185963 0.9819236 0.03528922 0.1858012 0.9819535 0.07760673 -0.03300052 0.9964377 -0.04287225 0.5991227 0.7995088 0.01502072 0.2717983 0.9622371 0.0150485 0.2716339 0.9622831 0.07083201 -0.09289038 0.9931538 -3.69531e-4 0.7281428 -0.6854254 0.04197078 0.8220921 -0.5678055 0.04199767 0.8221464 -0.567725 0.08329051 0.8959729 -0.4362284 -0.3627099 0.5565836 -0.7474331 -0.4450963 0.3223819 -0.8354397 -0.8061251 0.2790053 -0.5218416 -0.9782148 0.1057792 -0.1786243 -0.08887022 0.9958375 -0.02024245 0.00207895 0.9425246 0.3341304 0.002116441 0.9424698 0.3342845 0.09278857 0.760333 0.6428717 0.09327191 -0.9763886 0.194848 0.01791912 -0.8515567 0.5239562 0.01788252 -0.851484 0.5240757 -0.05973923 -0.6162134 0.7853104 0.08793437 0.9797233 -0.1800273 0.004334568 0.845251 -0.534352 0.004299283 0.8451507 -0.5345109 -0.07995307 0.5833467 -0.8082786 -0.4495687 0.186816 0.8734918 -0.8041424 -0.03958594 0.5931171 -0.2457613 0.009330689 0.9692855 -0.3053188 -0.1780373 0.9354588 -0.4419632 0.8322972 0.3345894 -0.8840577 0.3839948 0.2664399 -0.3100092 0.8674308 0.3891764 -0.2570611 0.8699942 0.4207489 -0.7145949 0.5963551 0.3656705 -0.3666752 0.736097 0.5689558 0.9997599 -0.01292747 -0.0176956 0.9999896 0.003180384 0.003260016 0.9984192 0.05515396 -0.01082158 0.9999256 0.01153087 0.003988504 0.9999998 -8.23135e-4 -7.21868e-5 0.9989306 0.006805598 -0.04573398 0.997783 0.0665068 -0.002478122 0.9999674 0.001994311 0.007827222 0.9999877 -0.004981577 2.89319e-4 0.9999436 3.9024e-4 0.01061564 0.9569262 0.2852603 -0.05402696 0.9999969 -2.35308e-4 -0.002472043 0.9999737 -0.004939913 0.005321383 0.9999873 0.003923594 -0.003175675 0.9996164 0.02623724 0.008874237 0.9675247 0.2447395 0.06323546 0.9999998 -4.54207e-4 -6.51701e-4 0.9995512 0.01761287 0.02423298 0.9999975 -0.002210915 3.58744e-4 0.996615 0.003028273 -0.08215588 0.9998925 -0.008670508 0.01183122 0.9999645 -0.008260607 0.001682639 0.9981337 0.02039742 0.05756199 0.9606943 0.1578262 0.2283799 0.9999924 0.003351271 0.002006947 0.9999831 0.005799889 6.55223e-4 0.9999502 0.009881198 0.001414656 0.9972831 -0.06191498 0.03991466 0.9999503 0.009877979 0.001412212 0.9972828 -0.0619204 0.0399127 0.9998808 -0.001031517 -0.01541042 0.9768721 0.02383637 0.2124922 0.9900662 0.01289033 0.1400098 0.999389 9.03324e-4 0.0349425 0.999852 -0.002208888 -0.01706147 0.998738 -0.004519879 -0.05001962 0.8572193 -0.4380242 0.270758 0.9984111 -0.05241107 0.02070015 0.9995176 0.01138287 -0.0288949 0.9999789 -0.001342415 -0.006352603 0.9999976 -0.002210021 3.2956e-4 0.9999881 -0.00175172 0.004573941 0.9992896 0.02153378 -0.03092759 0.9999994 5.67433e-4 9.48267e-4 0.9999944 5.91912e-4 -0.003305494 0.9999882 -0.001740336 0.004555523 0.9999944 5.91437e-4 -0.003296494 -0.4747692 0.789934 -0.3880705 -0.9472889 0.2794377 -0.1567116 -0.4785323 0.8418104 -0.2497241 -0.612783 0.7677299 -0.1873178 -0.9472773 0.2794959 -0.1566777 -0.987456 0.154021 -0.03475922 0.0656948 0.5252737 0.8483936 0.004292905 0.2839193 0.9588386 0.004345715 0.2840759 0.958792 -0.05737996 0.02170246 0.9981165 -0.04796737 0.8939218 -0.4456492 -0.006666123 0.7780795 -0.6281304 -0.00671786 0.7782018 -0.6279785 0.03495496 0.6247938 -0.7800071 0.04977124 -0.804937 0.5912693 0.004897117 -0.9515978 0.3073074 0.004933416 -0.9515429 0.3074766 -0.04043501 -0.9991463 -0.008471071 0.08009868 -0.9951829 -0.05652755 -0.004220008 -0.936964 -0.3494006 -0.004164099 -0.937028 -0.3492293 -0.0880801 -0.7885934 -0.6085741 0.04501008 -0.6411291 -0.766112 0.001723587 -0.3853155 -0.9227834 0.001776933 -0.3854955 -0.922708 -0.04167556 -0.09429121 -0.994672 -0.04171293 0.9904925 -0.1310908 5.85578e-4 0.9232105 -0.3842945 5.33828e-4 0.9232749 -0.3841396 0.04278934 0.7910596 -0.6102408 0.00921595 0.9019573 -0.4317272 0.03675901 0.8524099 -0.5215804 0.03673714 0.8524332 -0.5215439 0.06386297 0.793227 -0.6055678 -0.05752682 0.0984205 0.9934808 -0.01001477 0.3792079 0.9252573 -0.01005476 0.3790642 0.9253158 0.03837162 0.6272954 0.7778354 0.03743672 0.3398271 -0.9397426 -0.008795738 0.5821105 -0.8130623 -0.008735239 0.5819402 -0.8131847 -0.0542649 0.7795856 -0.6239404 -0.04255312 0.6240959 0.7801882 -0.004076361 0.7944966 0.6072551 -0.004118859 0.7943934 0.6073896 0.03459191 0.9168503 0.3977298 -0.03776586 -0.6340279 -0.7723874 0.00412631 -0.7657299 -0.6431491 0.004142642 -0.7657277 -0.6431515 0.004173755 -0.7658395 -0.6430184 0.004180431 -0.765837 -0.6430212 0.04593217 -0.8700718 -0.4907803 -0.05511093 -0.5767705 -0.8150452 -0.00646305 -0.7601681 -0.6496944 -0.006458997 -0.760167 -0.6496957 -0.006427884 -0.7602826 -0.6495609 -0.006405889 -0.7602815 -0.6495624 0.04264283 -0.8954256 -0.4431645 0.03893232 -0.343852 0.9382165 -0.002000033 -0.5683048 0.8228157 -0.001959145 -0.5681951 0.8228917 -0.0427621 -0.7555333 0.6537131 -0.04092556 -0.1154575 -0.992469 0.002586305 -0.3456075 -0.9383757 0.002531886 -0.3454659 -0.938428 0.0458706 -0.5556384 -0.8301578 -0.9800927 -0.1407586 0.1400195 -0.7292001 -0.4382045 0.5255893 -0.9696075 -0.124643 0.2105364 -0.9696244 -0.1245652 0.2105045 -0.5902034 -0.4982946 0.6351083 -0.7107881 -0.3393442 0.6161379 -0.9830272 -0.111768 0.1454845 0.1109151 0.7961043 0.5949084 -0.02248156 0.6506904 0.7590103 -0.0224483 0.6507269 0.75898 -0.1543371 0.4624672 0.8731004 0.05169266 -0.9310633 -0.3611774 0.004661202 -0.793058 -0.6091284 0.004709124 -0.7931553 -0.6090013 -0.0427289 -0.5896081 -0.8065584 -0.04085165 -0.9877102 0.1508628 -5.62591e-4 -0.9208547 0.3899057 -6.01191e-4 -0.9209308 0.3897257 0.03974312 -0.7958795 0.6041494 -0.04236119 0.1101257 0.9930145 -0.007427632 0.3560469 0.9344386 -0.007483601 0.3559212 0.934486 0.02796053 0.5785484 0.8151687 -0.228143 0.5168969 -0.825087 -0.03513205 0.3048013 -0.9517679 -0.03514426 0.3048191 -0.9517617 0.1613844 0.06288677 -0.984886 -0.03734904 0.997624 0.05789309 0.008877396 0.9772005 -0.2121334 0.008825361 0.977243 -0.2119393 0.05435454 0.8831173 -0.4659929 0.1039268 -0.7905756 0.6034813 -0.07868784 -0.9269223 0.3669106 -0.07867693 -0.9269115 0.3669403 -0.2527738 -0.9632588 0.0907638 0.1011413 -0.7107329 0.6961532 -0.135885 -0.8279129 0.5441466 0.0303561 -0.9124138 0.4081416 -0.1370823 -0.9591877 0.2473205 0.01206177 -0.9952068 0.09704637 -0.1308734 -0.98684 -0.09496784 -0.0218712 -0.9708089 -0.2388557 -0.1599109 -0.8985157 -0.4087765 0.04139989 -0.8335039 -0.5509604 -0.1050523 -0.6979973 -0.708353 0.04156368 -0.833468 -0.5510023 -0.1049047 -0.6979734 -0.7083984 0.1413209 -0.5451872 -0.8263168 -0.04045307 -0.6389469 -0.7681865 -0.1050839 -0.6979075 -0.7084367 -0.3896958 -0.326523 -0.8611155 -0.3876038 0.3265963 0.8620315 -0.03605043 0.6381322 0.7690824 -0.1022013 0.6975592 0.709201 -0.1020265 0.6976099 0.7091763 0.1439799 0.5441906 0.8265146 0.04283714 0.8332741 0.5511981 -0.102168 0.6976513 0.7091153 0.04267215 0.8333147 0.5511495 -0.1614606 0.8984027 0.4084153 -0.02413284 0.9708318 0.2385442 -0.1368414 0.9862037 0.09315013 -0.001933157 0.9951007 -0.09884715 -0.1506448 0.9568992 -0.2482941 0.01998245 0.9128247 -0.4078626 -0.1363552 0.8280265 -0.5438562 0.1014006 0.7106814 -0.696168 0.1522843 0.9321593 -0.3284642 0.02266484 0.9987766 -0.043953 0.1247673 0.9775439 0.1698269 -0.04132777 0.9054381 0.4224619 0.08722811 0.8063107 0.5850252 -0.08282661 0.6300237 0.7721463 0.05576944 0.4400106 0.8962592 -0.08145028 0.1810441 0.9800965 0.143983 -0.0447514 0.9885678 -0.0198732 -0.2625488 0.9647141 0.1498115 -0.4932783 0.856874 -0.04270237 -0.7041922 0.7087242 0.08029937 -0.8664141 0.4928273 -0.09147459 -0.9432707 0.3191754 0.1057494 -0.9873828 0.1178658 -0.02289682 -0.9928516 -0.1171393 0.09964853 -0.9343155 -0.342235 -0.005923211 -0.822512 -0.5687169 0.1091415 -0.7113756 -0.694286 -0.04100853 -0.4589501 -0.8875151 0.06622284 -0.3796831 -0.9227434 -0.104466 -0.1730366 -0.9793596 0.03389412 0.01524114 -0.9993093 -0.01395326 0.2222743 -0.9748843 0.1156653 0.371496 -0.9212016 -0.05038356 0.533422 -0.8443474 0.04592567 0.6845107 -0.7275548 -0.05561733 0.8480932 -0.5269201 -0.2812584 -0.2405549 -0.9289925 -0.9796109 -0.1709524 0.1055352 -0.9999216 0.00853455 0.009166002 -0.999917 -0.006978988 0.01083242 -0.9996606 -0.01692569 0.01980704 -0.9999579 -0.009071946 0.001444399 -0.9999886 0.004070639 -0.002527773 -0.9920465 -0.0877977 0.09019637 -0.9991455 -0.007174491 -0.04070502 -0.9981493 -0.05395108 0.02805703 -0.9471347 -0.2736681 0.1674565 -0.9981479 -0.05396777 0.02807617 -0.6468781 -0.6750637 0.3547364 -0.9999988 0.00131762 8.49818e-4 -0.9927221 0.08331739 0.08695495 -0.9997484 0.006499946 0.02147126 -0.9830591 -0.1117154 0.1453089 -0.9994268 1.49641e-4 -0.033854 -0.999422 1.37024e-4 -0.0339961 -0.9997798 -0.01752179 0.01155239 -0.9977713 -0.00639081 -0.06642073 -0.9997161 -0.005980312 0.02306497 -0.9980893 0.01505672 0.05992627 -0.9999632 -0.007179856 -0.004708588 -0.999918 -0.01219278 -0.003923416 -0.9998727 -0.013121 -0.009089291 -0.9969789 0.04402822 0.06399095 -0.9964334 0.01225906 -0.08348822 -0.9997231 0.003889739 -0.02320587 -0.9999761 -0.006881177 7.12469e-4 -0.9995696 -0.01898682 -0.02236479 -0.9997938 0.01017433 0.0175755 -0.9998904 -0.00760889 -0.01270914 -0.9812717 -0.16122 -0.105423 -0.9999759 -0.006902813 7.3798e-4 -0.9847429 -0.1621874 -0.06306099 -0.9998382 0.002136409 0.01786148 -0.9999994 2.31194e-5 0.001140713 -0.9930389 0.07969653 0.08673083 -0.9943539 0.01188647 0.1054468 -0.9784669 0.1674618 0.1206613 -0.9984012 0.006019353 0.05620485 -0.9998551 -0.01246196 0.01160788 -0.9999534 0.005619585 -0.007855892 -0.9930428 0.07966351 0.0867173 -0.9998379 0.002132773 0.01788562 -0.9784669 0.1674805 0.120636 -0.9984034 0.006008803 0.05616605 -0.998225 0.05000799 -0.03234571 -0.9990024 -0.03878104 0.02214384 -0.99987 -0.009664475 0.01291745 -0.9999954 -0.003030359 1.99001e-4 -0.9998115 0.01669549 0.009912967 -0.9982241 0.05001837 -0.03235566 -0.9983347 -0.01382452 -0.05600774 -0.997437 -0.0407592 -0.05880761 -0.9996944 -0.003323197 0.02449625 -0.9990026 -0.03878921 0.02212107 -0.9965966 -0.01161962 0.08161085 -0.9991822 0.006809711 0.0398584 -0.9683422 0.2211573 -0.1157712 -0.9999403 -4.44028e-4 -0.01091575 -0.9922409 0.08865225 -0.08717077 -0.9999852 3.41263e-4 0.005438566 -0.999897 -0.004357337 -0.01367825 -0.9999994 6.76032e-4 -9.5395e-4 -0.9999947 0.002974271 0.001404166 -0.999817 0.004676461 0.01855409 -0.9999407 -8.30459e-4 0.0108571 -0.9997152 -0.006216526 -0.02304559 -0.9939247 0.06198626 -0.09094768 -0.9782177 0.1058503 -0.1785665 -0.9791253 0.1443806 -0.1430662 -0.6851447 0.4348486 -0.5843659 -0.9400005 0.04863971 -0.3376882 -0.9584006 -0.1553029 -0.2394776 -0.9990722 0.005524933 0.04271352 -0.9997383 0.005340635 -0.02224677 -0.9998344 0.002007722 -0.01808756 -0.9999942 0.001108169 -0.003231704 -0.999835 0.002006232 -0.01805567 -0.9999941 0.001107692 -0.003265082 -0.9928526 -0.08278912 -0.0859642 -0.7628859 -0.08647269 -0.6407243 -0.9583579 -0.1552805 -0.2396626 -0.8880857 0.02312749 -0.4590959 -0.9999825 0.003228366 0.004962384 -0.9999946 -0.003278493 -3.06966e-4 -0.9997321 -0.007665276 -0.02183979 -0.9998905 -0.007603347 -0.01269972 -0.9999673 -6.91872e-4 0.008066654 -0.9947793 -0.07390445 -0.07037317 -0.9997303 -0.007671535 -0.02192491 -0.9812625 -0.161237 -0.1054838 -0.9989175 -0.007741987 -0.04586893 -0.998919 -0.007730007 -0.04583799 -0.994781 -0.07388776 -0.07036554 -0.999967 -6.7962e-4 0.008088827 -0.9999881 -0.001378417 -0.004690647 -0.9999698 -0.003552794 -0.006908655 -0.9977701 -0.006392002 -0.06643998 -0.9621868 0.1111435 0.2486841 -0.9830528 -0.1117501 0.1453241 -0.9489697 -0.04529964 0.312097 -0.9999054 -0.00221318 0.01357716 -0.9999879 -0.001382172 -0.004736065 -0.9999052 -0.00221306 0.01359528 -0.6818508 0.3303695 0.6526374 -0.9312412 0.1694678 0.3225998 -0.8007031 0.1144139 0.5880342 -0.8637704 -0.03360372 0.5027638 0.999918 -7.08597e-4 0.01279586 0.9984107 -0.05241566 0.0207079 0.9998692 0.01128965 0.01158934 0.9995195 -0.02910125 0.01067346 0.9989389 -0.01801031 0.04238861 0.9999219 -0.007838428 0.009736716 0.974143 -0.2207334 0.0481885 0.996611 0.003031313 -0.08220332 0.9999963 -3.53386e-4 0.002751111 0.9994476 -0.02500844 0.02189046 0.9998351 -0.01464372 0.01073664 0.9956591 -0.06681448 0.0647993 0.9992822 -0.03560912 -0.01292496 0.9987168 -0.03790289 0.03358876 0.998858 -0.03326666 0.03429168 0.9988629 -0.03319567 0.03422218 0.9999995 -8.55954e-4 5.91474e-4 0.9994469 -0.02502125 0.02190351 0.9999951 1.48619e-4 -0.003159284 0.9999965 -2.05887e-4 -0.00265485 0.9998974 0.008100211 -0.01181912 0.9986575 -0.03303575 -0.03990095 0.9994456 0.02909868 -0.0161845 0.9495429 -0.2596671 -0.1759012 0.9989261 -0.01422303 -0.0440948 0.9999252 0.01209592 -0.001832306 0.9998779 0.003882467 -0.01514023 0.9977702 0.05010485 -0.04409301 0.9695251 -0.131426 -0.206757 0.9987421 0.001773357 0.0501129 0.9992814 -9.40539e-4 0.03789466 0.9998643 0.01519554 0.006364345 0.9804491 -0.009366929 -0.19655 0.9946879 -0.004186272 -0.102852 0.999953 -0.004827618 0.00840342 0.9996801 0.007751643 -0.02407556 0.999758 -0.00535047 0.02134144 0.999864 -0.01513427 0.006562709 0.9977708 0.05009782 -0.04408806 0.9998639 -0.01513248 0.006573677 0.9993962 1.71289e-4 -0.0347492 0.9990343 0.01222413 -0.04220438 0.9064483 0.3579037 -0.2241801 0.9984182 0.05516743 -0.01085102 0.9996121 -0.01082944 0.02565914 0.9999943 0.003052532 -0.001464962 0.9998974 0.008105337 -0.01181596 0.9998644 0.00189346 -0.01636129 0.9994606 -0.01934975 0.02653598 0.9999828 -0.001530528 0.005669832</float_array>
          <technique_common>
            <accessor source="#polygons_007-mesh-normals-array" count="681" stride="3">
              <param name="X" type="float"/>
              <param name="Y" type="float"/>
              <param name="Z" type="float"/>
            </accessor>
          </technique_common>
        </source>
        <vertices id="polygons_007-mesh-vertices">
          <input semantic="POSITION" source="#polygons_007-mesh-positions"/>
        </vertices>
        <triangles material="Surface_1_010-material" count="485">
          <input semantic="VERTEX" source="#polygons_007-mesh-vertices" offset="0"/>
          <input semantic="NORMAL" source="#polygons_007-mesh-normals" offset="1"/>
          <p>0 0 1 1 2 2 3 3 4 4 2 5 2 6 4 7 5 8 2 6 5 8 0 9 4 10 3 11 6 12 7 13 8 14 9 15 10 16 11 17 12 18 13 19 4 20 14 21 15 22 16 23 17 22 16 24 15 25 18 25 19 26 20 27 21 28 22 29 23 29 24 29 25 30 24 30 26 30 27 31 28 31 29 31 30 32 31 33 11 34 19 35 32 36 20 37 33 38 34 39 35 40 36 41 37 41 38 41 11 42 10 43 30 44 39 45 40 45 41 45 42 46 43 47 44 48 37 49 45 50 38 51 46 52 47 52 48 52 49 53 50 53 51 53 43 54 42 55 14 56 52 57 51 57 53 57 54 58 53 58 50 58 50 59 55 59 51 59 44 60 56 61 42 62 57 63 58 63 59 63 60 64 61 64 62 64 63 65 64 66 65 67 66 68 67 68 68 69 69 70 62 70 70 70 62 71 69 71 60 71 71 72 72 72 73 72 51 73 52 73 49 73 74 74 59 74 75 74 61 75 60 75 76 75 76 76 70 76 61 76 70 77 76 77 69 77 50 78 49 78 54 78 34 79 33 80 77 81 78 82 75 82 58 82 79 83 80 84 81 85 53 86 54 86 52 86 56 87 44 88 82 89 83 90 84 90 85 90 81 91 86 92 79 93 52 94 87 94 16 95 31 96 30 97 88 98 89 99 55 100 80 101 90 102 82 103 91 104 26 105 92 105 25 105 93 106 94 106 95 106 59 107 74 107 57 107 92 108 26 108 23 108 85 109 96 109 83 109 97 110 98 110 99 110 100 111 68 112 101 111 65 113 102 114 63 115 29 116 103 116 27 116 12 117 104 118 10 119 75 120 78 120 74 120 58 121 57 121 78 121 104 122 12 123 105 124 23 125 22 125 92 125 82 126 90 127 56 128 24 129 25 129 22 129 21 130 106 131 107 132 108 133 109 134 107 135 87 136 110 137 111 138 97 139 99 140 112 141 112 141 99 140 113 142 112 141 113 142 114 143 114 144 113 145 89 146 114 144 89 146 115 147 115 147 89 146 79 148 115 147 79 148 116 149 116 149 79 148 86 150 116 149 86 150 117 151 117 151 86 150 118 152 117 151 118 152 119 153 119 153 118 152 120 154 119 153 120 154 121 155 121 155 120 154 9 156 121 155 9 156 122 157 122 157 9 156 8 158 122 157 8 158 123 159 123 160 8 161 124 162 123 163 124 164 125 165 125 165 124 164 65 166 125 165 65 166 110 137 110 137 65 166 64 167 110 137 64 167 111 138 111 138 64 167 37 168 111 138 37 168 36 169 126 170 127 171 67 172 67 173 127 174 98 175 67 173 98 175 128 176 128 176 98 175 97 139 128 176 97 139 129 177 129 177 97 139 112 141 106 131 21 130 130 178 130 178 21 130 20 179 130 178 20 179 131 180 131 180 20 179 32 181 131 180 32 181 132 182 132 182 32 181 77 183 132 182 77 183 133 184 133 184 77 183 33 185 133 184 33 185 134 186 134 186 33 185 126 187 134 186 126 187 67 188 0 189 21 190 1 191 1 192 21 130 107 132 1 193 107 194 2 195 2 196 107 135 109 134 2 196 109 134 3 197 3 198 109 199 135 200 3 201 135 202 38 203 38 203 135 202 136 204 38 203 136 204 36 169 36 169 136 204 111 138 38 203 6 205 3 201 64 167 137 206 37 168 37 168 137 206 6 207 37 168 6 207 38 208 102 209 65 210 124 211 80 212 79 213 89 214 99 140 93 215 113 142 93 216 99 217 98 218 93 219 98 175 94 220 94 220 98 175 127 174 94 221 127 222 95 223 35 224 126 225 33 226 138 227 139 228 140 229 140 229 139 228 141 230 141 230 139 228 142 231 141 230 142 231 143 232 142 231 139 228 144 233 145 234 143 232 146 235 146 235 143 232 142 231 146 235 142 231 147 236 148 237 145 234 149 238 149 238 145 234 146 235 150 239 143 232 145 234 151 240 141 230 143 232 43 241 82 242 44 243 152 244 91 245 153 246 153 247 91 248 82 249 153 250 82 251 154 252 154 253 82 242 43 241 104 254 155 255 30 256 30 257 155 258 156 258 30 259 156 260 88 261 88 262 156 263 157 264 88 262 157 264 158 265 104 266 30 267 10 268 159 269 91 245 157 264 157 264 91 245 152 244 157 264 152 244 158 265 27 270 160 271 28 272 28 272 160 271 161 273 162 274 40 275 163 276 163 276 40 275 39 277 164 278 47 279 165 280 165 280 47 279 46 281 166 282 164 283 167 284 167 284 164 283 165 285 77 286 32 287 168 288 168 289 32 36 19 35 83 290 169 291 84 292 84 292 169 291 170 293 85 294 170 295 96 296 96 296 170 295 169 297 29 298 161 299 103 300 103 300 161 299 160 301 118 302 7 303 120 304 120 304 7 303 9 305 93 306 55 307 113 308 113 309 55 310 89 311 92 312 22 313 67 314 67 314 22 313 171 315 67 314 171 315 101 316 22 313 25 317 171 315 171 315 25 317 129 318 171 315 129 318 172 319 172 319 129 318 61 320 172 319 61 320 70 321 25 317 92 312 129 318 129 318 92 312 67 314 129 318 67 314 128 322 67 314 101 316 68 323 70 321 62 324 172 319 172 319 62 324 173 325 62 324 61 320 114 326 114 326 61 320 129 318 114 326 129 318 112 327 174 328 173 325 114 326 114 326 173 325 62 324 115 329 52 330 114 326 114 326 52 330 16 331 114 326 16 331 174 328 175 332 176 333 117 334 117 334 176 333 115 329 117 334 115 329 116 335 175 332 117 334 160 336 160 336 117 334 123 337 160 336 123 337 103 338 103 338 123 337 125 339 103 340 125 341 27 342 119 343 121 344 117 334 117 334 121 344 122 345 117 334 122 345 123 337 27 342 125 341 177 346 177 346 125 341 115 329 177 346 115 329 176 333 177 346 178 347 27 342 27 342 178 347 175 332 27 342 175 332 160 336 110 348 87 349 125 341 125 341 87 349 166 350 125 341 166 350 115 329 115 329 166 350 49 351 115 329 49 351 52 330 52 352 47 353 87 349 87 349 47 353 164 354 87 349 164 354 166 350 49 351 48 355 54 356 54 356 48 355 47 357 54 358 47 353 52 352 49 351 166 350 48 355 126 359 35 360 127 361 127 362 35 363 95 364 179 365 180 366 181 367 181 367 180 366 182 368 180 369 179 370 66 371 66 371 179 370 13 372 183 373 184 374 185 375 185 375 184 374 186 376 181 377 182 378 13 379 13 379 182 378 66 380 185 381 186 382 187 383 187 383 186 382 188 384 189 385 190 386 188 387 188 387 190 386 187 388 162 389 163 390 191 391 191 391 163 390 192 392 184 393 183 394 189 395 189 395 183 394 190 396 193 397 194 398 195 399 195 399 194 398 196 400 197 401 198 402 196 403 196 403 198 402 195 404 166 405 167 406 48 407 48 408 167 409 46 410 191 411 192 412 41 413 41 414 192 415 39 416 198 417 197 418 199 419 199 419 197 418 200 420 175 421 201 422 176 423 176 423 201 422 202 424 102 425 124 426 203 427 203 428 124 429 8 430 203 431 8 14 7 13 72 432 204 433 73 434 73 434 204 433 205 435 199 436 200 437 193 438 193 438 200 437 194 439 176 440 202 441 177 442 177 442 202 441 206 443 177 444 206 445 178 446 178 446 206 445 207 447 204 448 72 449 208 450 208 450 72 449 71 451 178 452 207 453 175 454 175 454 207 453 201 455 73 456 205 457 71 458 71 458 205 457 208 459 90 460 91 461 209 462 209 462 91 461 159 463 209 462 159 463 210 464 210 464 159 463 157 465 210 464 157 465 211 466 211 466 157 465 156 467 211 466 156 467 212 468 212 468 156 467 155 469 212 470 155 471 105 472 105 473 155 474 104 475 43 476 14 477 154 478 154 479 14 480 213 481 154 482 213 483 153 484 153 484 213 483 214 485 153 484 214 485 152 486 152 486 214 485 215 487 152 486 215 487 158 488 158 488 215 487 216 489 158 488 216 489 88 490 88 490 216 489 31 491 143 492 217 493 151 494 151 494 217 493 218 495 151 494 218 495 141 496 141 496 218 495 219 497 141 496 219 497 140 498 140 498 219 497 68 499 140 498 68 499 138 500 138 500 68 499 100 501 138 500 100 501 139 502 139 502 100 501 101 503 139 502 101 503 144 504 144 504 101 503 171 505 144 504 171 505 142 506 142 506 171 505 172 507 142 506 172 507 147 508 147 508 172 507 173 509 147 508 173 509 146 510 146 510 173 509 174 511 146 510 174 511 149 512 149 512 174 511 18 513 149 512 18 513 148 514 148 514 18 513 15 515 148 514 15 515 145 516 145 516 15 515 17 517 145 516 17 517 150 518 150 518 17 517 220 519 150 518 220 519 143 492 143 492 220 519 217 493 16 520 18 513 174 511 63 521 165 522 31 523 31 523 165 522 46 524 31 523 46 524 11 525 11 525 46 524 167 526 11 525 167 526 102 527 102 527 167 526 165 522 102 527 165 522 63 521 31 523 216 528 63 521 63 521 216 528 137 529 63 530 137 531 64 532 11 525 102 527 12 533 12 533 102 527 80 534 80 534 102 527 29 535 29 535 102 527 203 536 29 535 203 536 161 537 161 538 203 539 201 540 161 538 201 540 207 541 215 542 214 543 137 529 137 529 214 543 192 544 137 529 192 544 163 545 75 546 137 529 58 547 58 547 137 529 216 528 58 547 216 528 59 548 59 548 216 528 215 542 59 548 215 542 75 546 75 546 215 542 137 529 214 543 213 549 192 544 192 544 213 549 39 550 39 550 213 549 163 545 163 545 213 549 6 551 163 545 6 551 137 529 14 552 4 553 213 554 213 554 4 553 6 555 105 556 12 533 50 557 50 557 12 533 80 534 50 557 80 534 55 558 51 559 55 560 53 561 93 562 212 563 55 564 55 564 212 563 105 565 55 566 105 556 53 567 53 567 105 556 50 557 95 568 60 569 93 562 93 562 60 569 69 570 93 562 69 570 212 563 212 563 69 570 76 571 212 563 76 571 211 572 211 572 76 571 95 573 211 572 95 573 210 574 210 574 95 573 26 575 210 574 26 575 24 576 60 577 95 573 76 571 26 575 95 573 23 578 23 578 95 573 209 579 209 579 95 573 35 580 209 579 35 580 90 581 34 582 199 583 35 580 35 580 199 583 193 584 35 580 193 584 90 581 90 581 193 584 195 585 90 581 195 585 56 586 199 583 34 582 198 587 170 588 85 589 168 590 168 590 85 589 34 582 168 591 34 592 77 593 19 594 0 595 168 590 168 590 0 595 183 596 168 590 183 596 170 588 170 588 183 596 185 597 170 588 185 597 84 598 84 598 185 597 187 599 84 600 187 601 85 589 85 589 187 601 5 602 85 589 5 602 34 582 21 603 0 604 19 605 187 601 190 606 5 602 5 602 190 606 183 596 5 602 183 596 0 595 42 607 181 608 14 609 14 609 181 608 13 610 195 585 198 587 56 586 56 586 198 587 34 582 56 586 34 582 42 607 42 607 34 582 5 602 42 607 5 602 181 608 181 608 5 602 4 611 181 612 4 613 179 614 179 615 4 616 13 617 23 578 209 579 24 576 24 576 209 579 210 574 206 618 202 619 80 534 80 534 202 619 201 620 80 534 201 620 81 621 81 621 201 620 203 622 81 621 203 622 7 623 80 534 29 535 206 618 206 618 29 535 28 624 206 625 28 626 207 541 207 541 28 626 161 538 86 627 81 628 118 629 118 629 81 628 7 630 57 631 87 632 78 633 78 633 87 632 136 634 78 633 136 634 74 635 74 635 136 634 220 636 74 635 220 636 57 631 57 631 220 636 87 632 111 637 136 634 87 632 16 638 87 632 17 639 17 639 87 632 220 636 220 636 136 634 217 640 217 640 136 634 191 641 217 640 191 641 41 642 136 634 135 643 191 641 191 641 135 643 162 644 40 645 217 640 41 642 162 644 135 643 40 646 40 646 135 643 218 647 40 646 218 647 217 648 218 647 135 643 219 649 219 649 135 643 68 650 68 650 135 643 66 651 66 651 135 643 108 652 66 651 108 652 180 653 109 654 108 652 135 643 106 655 189 656 108 652 108 652 189 656 188 657 108 652 188 657 133 658 107 659 106 655 108 652 205 660 204 661 106 655 106 655 204 661 184 662 106 655 184 662 189 656 130 663 131 664 106 655 106 655 131 664 132 665 106 655 132 665 205 660 208 666 184 662 204 661 208 666 205 660 169 667 169 667 205 660 132 665 169 667 132 665 96 668 96 668 132 665 133 669 96 670 133 658 83 671 83 671 133 658 188 657 83 671 188 657 186 672 169 667 83 671 208 666 208 666 83 671 186 672 208 666 186 672 184 662 134 673 67 674 133 658 133 658 67 674 197 675 133 658 197 675 108 652 108 652 197 675 182 676 108 652 182 676 180 653 66 677 194 678 67 674 67 674 194 678 200 679 67 674 200 679 197 675 197 675 196 680 182 676 182 676 196 680 194 678 182 676 194 678 66 677</p>
        </triangles>
      </mesh>
    </geometry>
  </library_geometries>
  <library_visual_scenes>
    <visual_scene id="Scene" name="Scene">
      <node id="mh00400-j00_lk6" name="mh00400-j00_lk6" type="NODE">
        <matrix sid="transform">1 0 0 -2.005 0 1 0 0 0 0 1 -2.2 0 0 0 1</matrix>
        <instance_geometry url="#polygons_007-mesh" name="mh00400-j00_lk6">
          <bind_material>
            <technique_common>
              <instance_material symbol="Surface_1_010-material" target="#Surface_1_010-material"/>
            </technique_common>
          </bind_material>
        </instance_geometry>
      </node>
    </visual_scene>
  </library_visual_scenes>
  <scene>
    <instance_visual_scene url="#Scene"/>
  </scene>
</COLLADA>